<svg width="549" height="77" viewBox="0 0 549 77" fill="none" xmlns="http://www.w3.org/2000/svg">
<path d="M44.1 10.66C44.9 10.66 45.58 10.94 46.14 11.5C46.7 12.06 46.98 12.74 46.98 13.54C46.98 14.34 46.7 15.02 46.14 15.58C45.58 16.14 44.9 16.42 44.1 16.42H13.02C12.22 16.42 11.54 16.14 10.98 15.58C10.42 15.02 10.14 14.34 10.14 13.54C10.14 12.74 10.42 12.06 10.98 11.5C11.54 10.94 12.22 10.66 13.02 10.66H44.1ZM0.0600002 13.54C0.0600002 12.02 0.3 10.5 0.78 8.98C1.3 7.42 2.04 6.02 3 4.78C3.96 3.5 5.12 2.46 6.48 1.66C7.84 0.859999 9.38 0.46 11.1 0.46H45.48C46.28 0.46 46.96 0.739999 47.52 1.3C48.08 1.86 48.36 2.54 48.36 3.34C48.36 4.14 48.08 4.82 47.52 5.38C46.96 5.94 46.28 6.22 45.48 6.22H12.36C11.04 6.22 9.96 6.44 9.12 6.88C8.28 7.32 7.62 7.9 7.14 8.62C6.66 9.3 6.32 10.04 6.12 10.84C5.96 11.64 5.86 12.4 5.82 13.12V23.74C5.82 24.54 5.54 25.22 4.98 25.78C4.42 26.34 3.74 26.62 2.94 26.62C2.14 26.62 1.46 26.34 0.9 25.78C0.34 25.22 0.0600002 24.54 0.0600002 23.74V13.54ZM60.0764 23.74C60.0764 24.54 59.7964 25.22 59.2364 25.78C58.6764 26.34 57.9964 26.62 57.1964 26.62C56.3964 26.62 55.7164 26.34 55.1564 25.78C54.5964 25.22 54.3164 24.54 54.3164 23.74V3.34C54.3164 2.54 54.5964 1.86 55.1564 1.3C55.7164 0.739999 56.3964 0.46 57.1964 0.46C57.9964 0.46 58.6764 0.739999 59.2364 1.3C59.7964 1.86 60.0764 2.54 60.0764 3.34V23.74ZM106.954 3.34C106.954 2.54 107.234 1.86 107.794 1.3C108.354 0.739999 109.034 0.46 109.834 0.46C110.634 0.46 111.314 0.739999 111.874 1.3C112.434 1.86 112.714 2.54 112.714 3.34V20.8C112.714 22.44 112.154 23.82 111.034 24.94C109.954 26.06 108.594 26.62 106.954 26.62C106.394 26.62 105.834 26.54 105.274 26.38C104.754 26.22 104.274 26 103.834 25.72L76.3538 8.92C75.5938 8.48 74.9538 8.14 74.4338 7.9C73.9538 7.62 73.5538 7.48 73.2338 7.48C72.6338 7.48 72.2538 7.86 72.0938 8.62C71.9338 9.38 71.8538 10.48 71.8538 11.92V23.74C71.8538 24.54 71.5738 25.22 71.0137 25.78C70.4538 26.34 69.7738 26.62 68.9738 26.62C68.1738 26.62 67.4938 26.34 66.9338 25.78C66.3738 25.22 66.0938 24.54 66.0938 23.74V6.28C66.0938 4.64 66.6338 3.26 67.7138 2.14C68.8338 1.02 70.2138 0.46 71.8538 0.46C72.4138 0.46 72.9538 0.54 73.4738 0.7C74.0338 0.859998 74.5338 1.08 74.9738 1.36L102.454 18.16C103.214 18.6 103.834 18.96 104.314 19.24C104.834 19.48 105.254 19.6 105.574 19.6C106.174 19.6 106.554 19.22 106.714 18.46C106.874 17.7 106.954 16.6 106.954 15.16V3.34ZM155.311 20.86C156.671 20.86 157.791 20.62 158.671 20.14C159.551 19.62 160.231 19 160.711 18.28C161.231 17.56 161.571 16.78 161.731 15.94C161.931 15.06 162.031 14.26 162.031 13.54C162.031 12.82 161.931 12.04 161.731 11.2C161.571 10.32 161.231 9.52 160.711 8.8C160.231 8.08 159.551 7.48 158.671 7C157.791 6.48 156.671 6.22 155.311 6.22H121.591C120.791 6.22 120.111 5.94 119.551 5.38C118.991 4.82 118.711 4.14 118.711 3.34C118.711 2.54 118.991 1.86 119.551 1.3C120.111 0.739999 120.791 0.46 121.591 0.46H156.571C158.291 0.46 159.831 0.859999 161.191 1.66C162.551 2.46 163.711 3.5 164.671 4.78C165.631 6.02 166.351 7.42 166.831 8.98C167.351 10.5 167.611 12.02 167.611 13.54C167.611 15.02 167.371 16.52 166.891 18.04C166.411 19.56 165.711 20.94 164.791 22.18C163.911 23.42 162.831 24.46 161.551 25.3C160.271 26.1 158.811 26.54 157.171 26.62H121.591C120.791 26.62 120.111 26.34 119.551 25.78C118.991 25.22 118.711 24.54 118.711 23.74V13.54C118.711 12.74 118.991 12.06 119.551 11.5C120.111 10.94 120.791 10.66 121.591 10.66C122.391 10.66 123.071 10.94 123.631 11.5C124.191 12.06 124.471 12.74 124.471 13.54V20.86H155.311ZM227.625 23.74C227.625 24.54 227.345 25.22 226.785 25.78C226.225 26.34 225.545 26.62 224.745 26.62C223.945 26.62 223.265 26.34 222.705 25.78C222.145 25.22 221.865 24.54 221.865 23.74V16.42C220.345 16.42 218.865 16.22 217.425 15.82C215.985 15.42 214.465 14.8 212.865 13.96C211.305 13.08 209.625 11.96 207.825 10.6C206.025 9.24 204.005 7.58 201.765 5.62C201.445 5.34 201.165 5 200.925 4.6C200.725 4.2 200.625 3.78 200.625 3.34C200.625 2.54 200.905 1.86 201.465 1.3C202.025 0.739999 202.705 0.46 203.505 0.46C203.905 0.46 204.265 0.54 204.585 0.7C204.905 0.859998 205.225 1.06 205.545 1.3C208.105 3.54 210.245 5.3 211.965 6.58C213.725 7.82 215.285 8.74 216.645 9.34C218.045 9.94 219.365 10.32 220.605 10.48C221.845 10.6 223.245 10.66 224.805 10.66C226.365 10.66 227.745 10.6 228.945 10.48C230.145 10.36 231.425 10 232.785 9.4C234.145 8.8 235.685 7.88 237.405 6.64C239.165 5.36 241.345 3.58 243.945 1.3C244.625 0.739999 245.305 0.46 245.985 0.46C246.785 0.46 247.465 0.739999 248.025 1.3C248.585 1.86 248.865 2.54 248.865 3.34C248.865 3.78 248.745 4.2 248.505 4.6C248.305 5 248.045 5.34 247.725 5.62C245.525 7.54 243.505 9.2 241.665 10.6C239.825 11.96 238.085 13.08 236.445 13.96C234.845 14.8 233.305 15.42 231.825 15.82C230.385 16.22 228.985 16.42 227.625 16.42V23.74ZM289.899 20.86C291.259 20.86 292.379 20.62 293.259 20.14C294.139 19.62 294.819 19 295.299 18.28C295.819 17.56 296.159 16.78 296.319 15.94C296.519 15.06 296.619 14.26 296.619 13.54C296.619 12.82 296.519 12.04 296.319 11.2C296.159 10.32 295.819 9.52 295.299 8.8C294.819 8.08 294.139 7.48 293.259 7C292.379 6.48 291.259 6.22 289.899 6.22H265.659C264.259 6.22 263.119 6.48 262.239 7C261.399 7.48 260.719 8.08 260.199 8.8C259.719 9.52 259.379 10.32 259.179 11.2C259.019 12.04 258.939 12.82 258.939 13.54C258.939 14.26 259.019 15.06 259.179 15.94C259.379 16.78 259.719 17.56 260.199 18.28C260.719 19 261.399 19.62 262.239 20.14C263.119 20.62 264.259 20.86 265.659 20.86H289.899ZM302.199 13.54C302.199 15.06 301.939 16.6 301.419 18.16C300.939 19.68 300.219 21.08 299.259 22.36C298.299 23.6 297.139 24.62 295.779 25.42C294.419 26.22 292.879 26.62 291.159 26.62H263.799C262.159 26.54 260.699 26.1 259.419 25.3C258.139 24.46 257.039 23.42 256.119 22.18C255.239 20.94 254.559 19.56 254.079 18.04C253.599 16.52 253.359 15.02 253.359 13.54C253.359 12.02 253.599 10.5 254.079 8.98C254.599 7.42 255.339 6.02 256.299 4.78C257.259 3.5 258.419 2.46 259.779 1.66C261.139 0.859999 262.679 0.46 264.399 0.46H291.759C293.399 0.539999 294.859 0.999998 296.139 1.84C297.419 2.64 298.499 3.66 299.379 4.9C300.299 6.14 300.999 7.52 301.479 9.04C301.959 10.56 302.199 12.06 302.199 13.54ZM313.963 13.54C313.963 14.26 314.043 15.06 314.203 15.94C314.403 16.78 314.743 17.56 315.223 18.28C315.743 19 316.423 19.62 317.263 20.14C318.143 20.62 319.283 20.86 320.683 20.86H344.563C345.923 20.86 347.043 20.62 347.923 20.14C348.803 19.62 349.483 19 349.963 18.28C350.483 17.56 350.823 16.78 350.983 15.94C351.183 15.06 351.283 14.26 351.283 13.54V3.4C351.283 2.6 351.563 1.92 352.123 1.36C352.683 0.799999 353.363 0.519999 354.163 0.519999C354.963 0.519999 355.643 0.799999 356.203 1.36C356.763 1.92 357.043 2.6 357.043 3.4V13.54C357.043 15.06 356.783 16.6 356.263 18.16C355.783 19.68 355.063 21.08 354.103 22.36C353.143 23.6 351.983 24.62 350.623 25.42C349.263 26.22 347.723 26.62 346.003 26.62H318.643C317.003 26.54 315.543 26.1 314.263 25.3C312.983 24.46 311.883 23.42 310.963 22.18C310.083 20.94 309.403 19.56 308.923 18.04C308.443 16.52 308.203 15.02 308.203 13.54V3.4C308.203 2.6 308.483 1.92 309.043 1.36C309.603 0.799999 310.283 0.519999 311.083 0.519999C311.883 0.519999 312.563 0.799999 313.123 1.36C313.683 1.92 313.963 2.6 313.963 3.4V13.54ZM401.627 16.42C402.707 17.1 403.807 17.84 404.927 18.64C406.047 19.4 407.187 20.24 408.347 21.16C408.787 21.48 409.167 21.86 409.487 22.3C409.807 22.7 409.967 23.18 409.967 23.74C409.967 24.54 409.687 25.22 409.127 25.78C408.567 26.34 407.887 26.62 407.087 26.62C406.407 26.62 405.727 26.34 405.047 25.78C403.407 24.58 401.727 23.42 400.007 22.3C398.287 21.18 396.487 20.18 394.607 19.3C392.767 18.42 390.847 17.72 388.847 17.2C386.847 16.68 384.767 16.42 382.607 16.42H370.667C370.147 16.5 369.707 16.74 369.347 17.14C368.987 17.54 368.807 18.04 368.807 18.64V23.74C368.807 24.54 368.507 25.22 367.907 25.78C367.347 26.34 366.687 26.62 365.927 26.62C365.127 26.62 364.447 26.34 363.887 25.78C363.327 25.22 363.047 24.54 363.047 23.74V17.98C363.047 16.98 363.227 16.04 363.587 15.16C363.987 14.24 364.507 13.46 365.147 12.82C365.787 12.14 366.547 11.62 367.427 11.26C368.307 10.86 369.267 10.66 370.307 10.66H402.107C402.707 10.66 403.227 10.46 403.667 10.06C404.147 9.62 404.387 9.08 404.387 8.44C404.387 7.84 404.147 7.32 403.667 6.88C403.227 6.44 402.707 6.22 402.107 6.22H365.927C365.127 6.22 364.447 5.94 363.887 5.38C363.327 4.82 363.047 4.14 363.047 3.34C363.047 2.54 363.327 1.86 363.887 1.3C364.447 0.739999 365.127 0.46 365.927 0.46H401.867C402.987 0.46 404.027 0.679999 404.987 1.12C405.987 1.52 406.847 2.08 407.567 2.8C408.327 3.52 408.907 4.36 409.307 5.32C409.747 6.28 409.967 7.32 409.967 8.44C409.967 9.56 409.747 10.6 409.307 11.56C408.907 12.52 408.327 13.36 407.567 14.08C406.847 14.8 405.987 15.38 404.987 15.82C404.027 16.22 402.987 16.42 401.867 16.42H401.627ZM36.6 70.86C37.96 70.86 39.08 70.62 39.96 70.14C40.84 69.62 41.52 69 42 68.28C42.52 67.56 42.86 66.78 43.02 65.94C43.22 65.06 43.32 64.26 43.32 63.54C43.32 62.82 43.22 62.04 43.02 61.2C42.86 60.32 42.52 59.52 42 58.8C41.52 58.08 40.84 57.48 39.96 57C39.08 56.48 37.96 56.22 36.6 56.22H2.88C2.08 56.22 1.4 55.94 0.84 55.38C0.28 54.82 4.47035e-08 54.14 4.47035e-08 53.34C4.47035e-08 52.54 0.28 51.86 0.84 51.3C1.4 50.74 2.08 50.46 2.88 50.46H37.86C39.58 50.46 41.12 50.86 42.48 51.66C43.84 52.46 45 53.5 45.96 54.78C46.92 56.02 47.64 57.42 48.12 58.98C48.64 60.5 48.9 62.02 48.9 63.54C48.9 65.02 48.66 66.52 48.18 68.04C47.7 69.56 47 70.94 46.08 72.18C45.2 73.42 44.12 74.46 42.84 75.3C41.56 76.1 40.1 76.54 38.46 76.62H2.88C2.08 76.62 1.4 76.34 0.84 75.78C0.28 75.22 4.47035e-08 74.54 4.47035e-08 73.74V63.54C4.47035e-08 62.74 0.28 62.06 0.84 61.5C1.4 60.94 2.08 60.66 2.88 60.66C3.68 60.66 4.36 60.94 4.92 61.5C5.48 62.06 5.76 62.74 5.76 63.54V70.86H36.6ZM93.4823 66.42C94.5623 67.1 95.6623 67.84 96.7823 68.64C97.9023 69.4 99.0423 70.24 100.202 71.16C100.642 71.48 101.022 71.86 101.342 72.3C101.662 72.7 101.822 73.18 101.822 73.74C101.822 74.54 101.542 75.22 100.982 75.78C100.422 76.34 99.7423 76.62 98.9423 76.62C98.2623 76.62 97.5823 76.34 96.9023 75.78C95.2623 74.58 93.5823 73.42 91.8623 72.3C90.1423 71.18 88.3423 70.18 86.4623 69.3C84.6223 68.42 82.7023 67.72 80.7023 67.2C78.7023 66.68 76.6223 66.42 74.4623 66.42H62.5223C62.0023 66.5 61.5623 66.74 61.2023 67.14C60.8423 67.54 60.6623 68.04 60.6623 68.64V73.74C60.6623 74.54 60.3623 75.22 59.7623 75.78C59.2023 76.34 58.5423 76.62 57.7823 76.62C56.9823 76.62 56.3023 76.34 55.7423 75.78C55.1823 75.22 54.9023 74.54 54.9023 73.74V67.98C54.9023 66.98 55.0823 66.04 55.4423 65.16C55.8423 64.24 56.3623 63.46 57.0023 62.82C57.6423 62.14 58.4023 61.62 59.2823 61.26C60.1623 60.86 61.1223 60.66 62.1623 60.66H93.9623C94.5623 60.66 95.0823 60.46 95.5223 60.06C96.0023 59.62 96.2423 59.08 96.2423 58.44C96.2423 57.84 96.0023 57.32 95.5223 56.88C95.0823 56.44 94.5623 56.22 93.9623 56.22H57.7823C56.9823 56.22 56.3023 55.94 55.7423 55.38C55.1823 54.82 54.9023 54.14 54.9023 53.34C54.9023 52.54 55.1823 51.86 55.7423 51.3C56.3023 50.74 56.9823 50.46 57.7823 50.46H93.7223C94.8423 50.46 95.8823 50.68 96.8423 51.12C97.8423 51.52 98.7023 52.08 99.4223 52.8C100.182 53.52 100.762 54.36 101.162 55.32C101.602 56.28 101.822 57.32 101.822 58.44C101.822 59.56 101.602 60.6 101.162 61.56C100.762 62.52 100.182 63.36 99.4223 64.08C98.7023 64.8 97.8423 65.38 96.8423 65.82C95.8823 66.22 94.8423 66.42 93.7223 66.42H93.4823ZM107.813 53.34C107.813 52.54 108.093 51.86 108.653 51.3C109.213 50.74 109.893 50.46 110.693 50.46H153.233C154.033 50.46 154.713 50.74 155.273 51.3C155.833 51.86 156.113 52.54 156.113 53.34C156.113 54.14 155.833 54.82 155.273 55.38C154.713 55.94 154.033 56.22 153.233 56.22H110.693C109.893 56.22 109.213 55.94 108.653 55.38C108.093 54.82 107.813 54.14 107.813 53.34ZM115.133 76.62C114.253 76.62 113.373 76.44 112.493 76.08C111.613 75.68 110.833 75.14 110.153 74.46C109.473 73.78 108.913 72.96 108.473 72C108.033 71.04 107.813 69.96 107.813 68.76V63.36C107.813 62.28 108.113 61.56 108.713 61.2C109.353 60.84 110.333 60.66 111.653 60.66H151.913C152.713 60.66 153.393 60.94 153.953 61.5C154.513 62.06 154.793 62.74 154.793 63.54C154.793 64.34 154.513 65.02 153.953 65.58C153.393 66.14 152.713 66.42 151.913 66.42H113.573V69.36C113.573 69.76 113.733 70.12 114.053 70.44C114.413 70.72 114.873 70.86 115.433 70.86H153.233C154.033 70.86 154.713 71.14 155.273 71.7C155.833 72.26 156.113 72.94 156.113 73.74C156.113 74.54 155.833 75.22 155.273 75.78C154.713 76.34 154.033 76.62 153.233 76.62H115.133ZM167.229 75.54C166.629 76.26 165.889 76.62 165.009 76.62C164.209 76.62 163.529 76.34 162.969 75.78C162.409 75.22 162.129 74.54 162.129 73.74C162.129 73.02 162.329 72.44 162.729 72L177.309 52.38C177.989 51.46 178.889 50.72 180.009 50.16C181.129 49.56 182.329 49.26 183.609 49.26C184.809 49.26 185.949 49.52 187.029 50.04C188.109 50.56 188.989 51.28 189.669 52.2L204.249 71.7C204.489 71.98 204.689 72.3 204.849 72.66C205.009 72.98 205.089 73.34 205.089 73.74C205.089 74.54 204.809 75.22 204.249 75.78C203.689 76.34 203.009 76.62 202.209 76.62C201.249 76.62 200.489 76.24 199.929 75.48L185.949 56.82C185.669 56.5 185.309 56.16 184.869 55.8C184.469 55.4 184.049 55.2 183.609 55.2C183.169 55.2 182.729 55.4 182.289 55.8C181.889 56.16 181.569 56.5 181.329 56.82L167.229 75.54ZM261.753 73.74C261.753 74.54 261.473 75.22 260.913 75.78C260.353 76.34 259.673 76.62 258.873 76.62C258.073 76.62 257.393 76.34 256.833 75.78C256.273 75.22 255.993 74.54 255.993 73.74V60.66C255.993 59.02 255.893 58.2 255.693 58.2C255.533 58.2 254.973 58.74 254.013 59.82L240.813 74.82C240.293 75.42 239.653 75.88 238.893 76.2C238.133 76.48 237.313 76.62 236.433 76.62C235.553 76.62 234.733 76.48 233.973 76.2C233.213 75.88 232.573 75.42 232.053 74.82L218.853 59.82C217.933 58.74 217.373 58.2 217.173 58.2C216.973 58.2 216.873 59.02 216.873 60.66V73.74C216.873 74.54 216.593 75.22 216.033 75.78C215.473 76.34 214.793 76.62 213.993 76.62C213.193 76.62 212.513 76.34 211.953 75.78C211.393 75.22 211.113 74.54 211.113 73.74V56.22C211.113 54.62 211.573 53.26 212.493 52.14C213.413 51.02 214.673 50.46 216.273 50.46C217.233 50.46 218.093 50.7 218.853 51.18C219.613 51.66 220.313 52.24 220.953 52.92L234.753 68.64C234.953 68.84 235.193 69.06 235.473 69.3C235.793 69.5 236.113 69.6 236.433 69.6C236.753 69.6 237.053 69.5 237.333 69.3C237.653 69.06 237.913 68.84 238.113 68.64L251.853 52.92H251.913C252.473 52.16 253.153 51.56 253.953 51.12C254.753 50.68 255.633 50.46 256.593 50.46C258.193 50.46 259.453 51.02 260.373 52.14C261.293 53.26 261.753 54.62 261.753 56.22V73.74ZM294.785 53.34C294.785 52.54 295.065 51.86 295.625 51.3C296.185 50.74 296.865 50.46 297.665 50.46C298.465 50.46 299.145 50.74 299.705 51.3C300.265 51.86 300.545 52.54 300.545 53.34V63.54C300.545 64.26 300.625 65.06 300.785 65.94C300.985 66.78 301.325 67.56 301.805 68.28C302.325 69 303.005 69.62 303.845 70.14C304.725 70.62 305.865 70.86 307.265 70.86H321.185C320.545 69.74 320.065 68.56 319.745 67.32C319.425 66.04 319.265 64.78 319.265 63.54V53.34C319.265 52.54 319.545 51.86 320.105 51.3C320.665 50.74 321.345 50.46 322.145 50.46C322.945 50.46 323.625 50.74 324.185 51.3C324.745 51.86 325.025 52.54 325.025 53.34V63.54C325.025 64.26 325.105 65.04 325.265 65.88C325.465 66.72 325.785 67.52 326.225 68.28C326.705 69 327.345 69.62 328.145 70.14C328.985 70.62 330.045 70.86 331.325 70.86H337.025C338.385 70.86 339.505 70.62 340.385 70.14C341.265 69.62 341.945 69 342.425 68.28C342.945 67.56 343.285 66.78 343.445 65.94C343.645 65.06 343.745 64.26 343.745 63.54V53.34C343.745 52.54 344.025 51.86 344.585 51.3C345.145 50.74 345.825 50.46 346.625 50.46C347.425 50.46 348.105 50.74 348.665 51.3C349.225 51.86 349.505 52.54 349.505 53.34V63.54C349.505 65.06 349.245 66.6 348.725 68.16C348.245 69.68 347.525 71.08 346.565 72.36C345.605 73.6 344.445 74.62 343.085 75.42C341.725 76.22 340.185 76.62 338.465 76.62H305.225C303.585 76.62 302.125 76.22 300.845 75.42C299.565 74.62 298.465 73.6 297.545 72.36C296.665 71.08 295.985 69.66 295.505 68.1C295.025 66.54 294.785 65.02 294.785 63.54V53.34ZM359.065 75.54C358.465 76.26 357.725 76.62 356.845 76.62C356.045 76.62 355.365 76.34 354.805 75.78C354.245 75.22 353.965 74.54 353.965 73.74C353.965 73.02 354.165 72.44 354.565 72L369.145 52.38C369.825 51.46 370.725 50.72 371.845 50.16C372.965 49.56 374.165 49.26 375.445 49.26C376.645 49.26 377.785 49.52 378.865 50.04C379.945 50.56 380.825 51.28 381.505 52.2L396.085 71.7C396.325 71.98 396.525 72.3 396.685 72.66C396.845 72.98 396.925 73.34 396.925 73.74C396.925 74.54 396.645 75.22 396.085 75.78C395.525 76.34 394.845 76.62 394.045 76.62C393.085 76.62 392.325 76.24 391.765 75.48L377.785 56.82C377.505 56.5 377.145 56.16 376.705 55.8C376.305 55.4 375.885 55.2 375.445 55.2C375.005 55.2 374.565 55.4 374.125 55.8C373.725 56.16 373.405 56.5 373.165 56.82L359.065 75.54ZM439.609 50.46C440.409 50.46 441.089 50.74 441.649 51.3C442.209 51.86 442.489 52.54 442.489 53.34C442.489 54.14 442.209 54.82 441.649 55.38C441.089 55.94 440.409 56.22 439.609 56.22H421.849V73.74C421.849 74.54 421.569 75.22 421.009 75.78C420.449 76.34 419.769 76.62 418.969 76.62C418.169 76.62 417.489 76.34 416.929 75.78C416.369 75.22 416.089 74.54 416.089 73.74V56.22H398.089C397.369 56.14 396.749 55.84 396.229 55.32C395.709 54.76 395.449 54.1 395.449 53.34C395.449 52.54 395.729 51.86 396.289 51.3C396.849 50.74 397.529 50.46 398.329 50.46H439.609ZM446.953 63.54C446.953 62.02 447.193 60.5 447.673 58.98C448.193 57.42 448.933 56.02 449.893 54.78C450.853 53.5 452.013 52.46 453.373 51.66C454.733 50.86 456.273 50.46 457.993 50.46H492.973C493.773 50.46 494.453 50.74 495.013 51.3C495.573 51.86 495.853 52.54 495.853 53.34C495.853 54.14 495.573 54.82 495.013 55.38C494.453 55.94 493.773 56.22 492.973 56.22H459.253C457.853 56.22 456.713 56.48 455.833 57C454.993 57.48 454.313 58.08 453.793 58.8C453.313 59.52 452.973 60.32 452.773 61.2C452.613 62.04 452.533 62.82 452.533 63.54C452.533 64.26 452.613 65.06 452.773 65.94C452.973 66.78 453.313 67.56 453.793 68.28C454.313 69 454.993 69.62 455.833 70.14C456.713 70.62 457.853 70.86 459.253 70.86H492.973C493.773 70.86 494.453 71.14 495.013 71.7C495.573 72.26 495.853 72.94 495.853 73.74C495.853 74.54 495.573 75.22 495.013 75.78C494.453 76.34 493.773 76.62 492.973 76.62H457.393C455.753 76.62 454.293 76.22 453.013 75.42C451.733 74.62 450.633 73.6 449.713 72.36C448.833 71.08 448.153 69.66 447.673 68.1C447.193 66.54 446.953 65.02 446.953 63.54ZM548.835 73.74C548.835 74.54 548.555 75.22 547.995 75.78C547.435 76.34 546.755 76.62 545.955 76.62C545.155 76.62 544.475 76.34 543.915 75.78C543.355 75.22 543.075 74.54 543.075 73.74V66.42H507.615V73.74C507.615 74.54 507.335 75.22 506.775 75.78C506.215 76.34 505.535 76.62 504.735 76.62C503.935 76.62 503.255 76.34 502.695 75.78C502.135 75.22 501.855 74.54 501.855 73.74V53.34C501.855 52.54 502.135 51.86 502.695 51.3C503.255 50.74 503.935 50.46 504.735 50.46C505.535 50.46 506.215 50.74 506.775 51.3C507.335 51.86 507.615 52.54 507.615 53.34V60.66H543.075V53.34C543.075 52.54 543.355 51.86 543.915 51.3C544.475 50.74 545.155 50.46 545.955 50.46C546.755 50.46 547.435 50.74 547.995 51.3C548.555 51.86 548.835 52.54 548.835 53.34V73.74Z" fill="black"/>
</svg>
