<svg width="428" height="918" viewBox="0 0 428 918" fill="none" xmlns="http://www.w3.org/2000/svg">
<rect width="428" height="918" fill="#735CFF"/>
<path d="M215 41L179 -1.33495e-06L251 0L215 41Z" fill="white"/>
<path d="M204.248 539.243C204.248 538.816 204.397 538.453 204.696 538.155C204.995 537.856 205.357 537.707 205.784 537.707H221.688C222.008 537.707 222.285 537.589 222.52 537.355C222.755 537.12 222.872 536.832 222.872 536.491C222.872 536.171 222.755 535.904 222.52 535.691C222.285 535.456 222.008 535.339 221.688 535.339H202.136C201.709 535.339 201.347 535.189 201.048 534.891C200.749 534.592 200.6 534.229 200.6 533.803C200.6 533.376 200.749 533.013 201.048 532.715C201.347 532.416 201.709 532.267 202.136 532.267H221.528C222.125 532.267 222.68 532.373 223.192 532.587C223.725 532.8 224.184 533.099 224.568 533.483C224.952 533.867 225.251 534.315 225.464 534.827C225.699 535.339 225.816 535.893 225.816 536.491C225.816 537.024 225.72 537.525 225.528 537.995C225.357 538.464 225.112 538.88 224.792 539.243C225.475 540.053 225.816 540.971 225.816 541.995C225.816 542.592 225.699 543.147 225.464 543.659C225.251 544.171 224.952 544.619 224.568 545.003C224.184 545.387 223.725 545.685 223.192 545.899C222.68 546.112 222.125 546.219 221.528 546.219H202.136C201.709 546.219 201.347 546.069 201.048 545.771C200.749 545.472 200.6 545.109 200.6 544.683C200.6 544.256 200.749 543.893 201.048 543.595C201.347 543.296 201.709 543.147 202.136 543.147H221.688C222.008 543.147 222.285 543.04 222.52 542.827C222.755 542.592 222.872 542.315 222.872 541.995C222.872 541.653 222.755 541.365 222.52 541.131C222.285 540.896 222.008 540.779 221.688 540.779H205.784C205.357 540.779 204.995 540.629 204.696 540.331C204.397 540.032 204.248 539.669 204.248 539.243Z" fill="white"/>
<circle cx="214.055" cy="539.055" r="42.5546" stroke="white" stroke-opacity="0.2"/>
<circle cx="214.054" cy="539.055" r="29.7025" stroke="white"/>
<path d="M202.672 690.803C202.672 691.144 202.789 691.432 203.024 691.667C203.28 691.88 203.568 691.987 203.888 691.987H221.616V686.803C221.616 686.376 221.765 686.013 222.064 685.715C222.363 685.416 222.725 685.267 223.152 685.267C223.579 685.267 223.941 685.416 224.24 685.715C224.539 686.013 224.688 686.376 224.688 686.803V697.683C224.688 698.109 224.539 698.472 224.24 698.771C223.941 699.069 223.579 699.219 223.152 699.219C222.747 699.219 222.384 699.069 222.064 698.771C221.765 698.472 221.616 698.109 221.616 697.683V695.059H204.016C203.419 695.059 202.853 694.952 202.32 694.739C201.787 694.504 201.317 694.195 200.912 693.811C200.507 693.427 200.187 692.979 199.952 692.467C199.717 691.955 199.6 691.4 199.6 690.803V686.803C199.6 686.376 199.749 686.013 200.048 685.715C200.347 685.416 200.709 685.267 201.136 685.267C201.563 685.267 201.925 685.416 202.224 685.715C202.523 686.013 202.672 686.376 202.672 686.803V690.803Z" fill="white"/>
<circle cx="213.055" cy="692.055" r="42.5546" stroke="white" stroke-opacity="0.2"/>
<circle cx="213.054" cy="692.055" r="29.7025" stroke="white"/>
<path d="M211.824 230.555C211.824 230.235 211.696 229.957 211.44 229.723C211.205 229.467 210.928 229.339 210.608 229.339H209.136C208.709 229.339 208.347 229.189 208.048 228.891C207.749 228.592 207.6 228.229 207.6 227.803C207.6 227.376 207.749 227.013 208.048 226.715C208.347 226.416 208.709 226.267 209.136 226.267H210.576C211.173 226.267 211.728 226.384 212.24 226.619C212.773 226.832 213.232 227.131 213.616 227.515C214.021 227.899 214.331 228.357 214.544 228.891C214.779 229.403 214.896 229.957 214.896 230.555V238.683C214.896 239.109 214.747 239.472 214.448 239.771C214.149 240.069 213.787 240.219 213.36 240.219C212.933 240.219 212.571 240.069 212.272 239.771C211.973 239.472 211.824 239.109 211.824 238.683V230.555Z" fill="white"/>
<circle cx="213.055" cy="233.055" r="42.5546" stroke="white" stroke-opacity="0.2"/>
<circle cx="213.054" cy="233.055" r="29.7025" stroke="white"/>
<path d="M184.62 171.456C185.652 171.456 186.504 171.712 187.176 172.224C187.848 172.728 188.312 173.42 188.568 174.3H187.416C187.2 173.74 186.852 173.296 186.372 172.968C185.892 172.632 185.304 172.464 184.608 172.464C184.056 172.464 183.56 172.6 183.12 172.872C182.688 173.136 182.344 173.52 182.088 174.024C181.84 174.52 181.716 175.104 181.716 175.776C181.716 176.44 181.84 177.02 182.088 177.516C182.344 178.012 182.688 178.396 183.12 178.668C183.56 178.932 184.056 179.064 184.608 179.064C185.304 179.064 185.892 178.9 186.372 178.572C186.852 178.236 187.2 177.788 187.416 177.228H188.568C188.312 178.108 187.848 178.804 187.176 179.316C186.504 179.82 185.652 180.072 184.62 180.072C183.828 180.072 183.128 179.892 182.52 179.532C181.912 179.164 181.436 178.656 181.092 178.008C180.756 177.352 180.588 176.608 180.588 175.776C180.588 174.936 180.756 174.188 181.092 173.532C181.436 172.876 181.912 172.368 182.52 172.008C183.128 171.64 183.828 171.456 184.62 171.456ZM192.728 173.328C193.368 173.328 193.908 173.488 194.348 173.808C194.796 174.128 195.108 174.556 195.284 175.092V173.412H196.376V180H195.284V178.32C195.108 178.856 194.796 179.284 194.348 179.604C193.908 179.924 193.368 180.084 192.728 180.084C192.144 180.084 191.624 179.948 191.168 179.676C190.712 179.404 190.352 179.016 190.088 178.512C189.832 178 189.704 177.4 189.704 176.712C189.704 176.024 189.832 175.424 190.088 174.912C190.352 174.4 190.712 174.008 191.168 173.736C191.624 173.464 192.144 173.328 192.728 173.328ZM193.04 174.3C192.368 174.3 191.828 174.516 191.42 174.948C191.02 175.372 190.82 175.96 190.82 176.712C190.82 177.464 191.02 178.056 191.42 178.488C191.828 178.912 192.368 179.124 193.04 179.124C193.472 179.124 193.856 179.024 194.192 178.824C194.536 178.624 194.804 178.344 194.996 177.984C195.188 177.616 195.284 177.192 195.284 176.712C195.284 176.232 195.188 175.808 194.996 175.44C194.804 175.072 194.536 174.792 194.192 174.6C193.856 174.4 193.472 174.3 193.04 174.3ZM200.178 173.328C200.922 173.328 201.518 173.524 201.966 173.916C202.422 174.3 202.698 174.82 202.794 175.476H201.75C201.702 175.084 201.538 174.764 201.258 174.516C200.986 174.26 200.618 174.132 200.154 174.132C199.762 174.132 199.454 174.228 199.23 174.42C199.014 174.604 198.906 174.856 198.906 175.176C198.906 175.416 198.978 175.612 199.122 175.764C199.274 175.908 199.458 176.02 199.674 176.1C199.898 176.172 200.202 176.252 200.586 176.34C201.074 176.452 201.466 176.568 201.762 176.688C202.066 176.8 202.322 176.984 202.53 177.24C202.746 177.496 202.854 177.84 202.854 178.272C202.854 178.808 202.65 179.244 202.242 179.58C201.842 179.916 201.306 180.084 200.634 180.084C199.85 180.084 199.21 179.896 198.714 179.52C198.218 179.144 197.926 178.62 197.838 177.948H198.894C198.934 178.348 199.106 178.672 199.41 178.92C199.722 179.168 200.13 179.292 200.634 179.292C201.01 179.292 201.302 179.196 201.51 179.004C201.726 178.812 201.834 178.56 201.834 178.248C201.834 177.992 201.758 177.788 201.606 177.636C201.454 177.484 201.266 177.368 201.042 177.288C200.818 177.208 200.51 177.124 200.118 177.036C199.63 176.924 199.238 176.812 198.942 176.7C198.654 176.588 198.406 176.412 198.198 176.172C197.998 175.924 197.898 175.592 197.898 175.176C197.898 174.624 198.102 174.18 198.51 173.844C198.918 173.5 199.474 173.328 200.178 173.328ZM210.374 176.34C210.374 176.572 210.358 176.772 210.326 176.94H205.058C205.082 177.692 205.294 178.256 205.694 178.632C206.102 179.008 206.598 179.196 207.182 179.196C207.71 179.196 208.15 179.064 208.502 178.8C208.862 178.528 209.082 178.168 209.162 177.72H210.326C210.246 178.176 210.066 178.584 209.786 178.944C209.514 179.304 209.158 179.584 208.718 179.784C208.278 179.984 207.782 180.084 207.23 180.084C206.598 180.084 206.038 179.948 205.55 179.676C205.062 179.404 204.678 179.016 204.398 178.512C204.126 178 203.99 177.4 203.99 176.712C203.99 176.024 204.126 175.424 204.398 174.912C204.678 174.4 205.062 174.008 205.55 173.736C206.038 173.464 206.598 173.328 207.23 173.328C207.87 173.328 208.426 173.464 208.898 173.736C209.378 174.008 209.742 174.372 209.99 174.828C210.246 175.284 210.374 175.788 210.374 176.34ZM209.27 176.412C209.294 175.924 209.214 175.516 209.03 175.188C208.846 174.86 208.594 174.616 208.274 174.456C207.954 174.296 207.606 174.216 207.23 174.216C206.63 174.216 206.126 174.404 205.718 174.78C205.31 175.148 205.09 175.692 205.058 176.412H209.27ZM218.511 171.456C219.543 171.456 220.395 171.712 221.067 172.224C221.739 172.728 222.203 173.42 222.459 174.3H221.307C221.091 173.74 220.743 173.296 220.263 172.968C219.783 172.632 219.195 172.464 218.499 172.464C217.947 172.464 217.451 172.6 217.011 172.872C216.579 173.136 216.235 173.52 215.979 174.024C215.731 174.52 215.607 175.104 215.607 175.776C215.607 176.44 215.731 177.02 215.979 177.516C216.235 178.012 216.579 178.396 217.011 178.668C217.451 178.932 217.947 179.064 218.499 179.064C219.195 179.064 219.783 178.9 220.263 178.572C220.743 178.236 221.091 177.788 221.307 177.228H222.459C222.203 178.108 221.739 178.804 221.067 179.316C220.395 179.82 219.543 180.072 218.511 180.072C217.719 180.072 217.019 179.892 216.411 179.532C215.803 179.164 215.327 178.656 214.983 178.008C214.647 177.352 214.479 176.608 214.479 175.776C214.479 174.936 214.647 174.188 214.983 173.532C215.327 172.876 215.803 172.368 216.411 172.008C217.019 171.64 217.719 171.456 218.511 171.456ZM226.907 173.328C227.539 173.328 228.103 173.464 228.599 173.736C229.103 174.008 229.495 174.4 229.775 174.912C230.063 175.424 230.207 176.024 230.207 176.712C230.207 177.4 230.063 178 229.775 178.512C229.495 179.016 229.103 179.404 228.599 179.676C228.103 179.948 227.539 180.084 226.907 180.084C226.275 180.084 225.707 179.948 225.203 179.676C224.707 179.404 224.315 179.016 224.027 178.512C223.739 178 223.595 177.4 223.595 176.712C223.595 176.024 223.739 175.424 224.027 174.912C224.315 174.4 224.707 174.008 225.203 173.736C225.707 173.464 226.275 173.328 226.907 173.328ZM226.907 174.288C226.515 174.288 226.151 174.376 225.815 174.552C225.487 174.728 225.219 175 225.011 175.368C224.811 175.728 224.711 176.176 224.711 176.712C224.711 177.24 224.811 177.688 225.011 178.056C225.219 178.416 225.487 178.684 225.815 178.86C226.151 179.036 226.515 179.124 226.907 179.124C227.299 179.124 227.659 179.036 227.987 178.86C228.323 178.684 228.591 178.416 228.791 178.056C228.999 177.688 229.103 177.24 229.103 176.712C229.103 176.176 228.999 175.728 228.791 175.368C228.591 175 228.323 174.728 227.987 174.552C227.659 174.376 227.299 174.288 226.907 174.288ZM232.722 171.12V180H231.63V171.12H232.722ZM237.466 173.328C238.098 173.328 238.662 173.464 239.158 173.736C239.662 174.008 240.054 174.4 240.334 174.912C240.622 175.424 240.766 176.024 240.766 176.712C240.766 177.4 240.622 178 240.334 178.512C240.054 179.016 239.662 179.404 239.158 179.676C238.662 179.948 238.098 180.084 237.466 180.084C236.834 180.084 236.266 179.948 235.762 179.676C235.266 179.404 234.874 179.016 234.586 178.512C234.298 178 234.154 177.4 234.154 176.712C234.154 176.024 234.298 175.424 234.586 174.912C234.874 174.4 235.266 174.008 235.762 173.736C236.266 173.464 236.834 173.328 237.466 173.328ZM237.466 174.288C237.074 174.288 236.71 174.376 236.374 174.552C236.046 174.728 235.778 175 235.57 175.368C235.37 175.728 235.27 176.176 235.27 176.712C235.27 177.24 235.37 177.688 235.57 178.056C235.778 178.416 236.046 178.684 236.374 178.86C236.71 179.036 237.074 179.124 237.466 179.124C237.858 179.124 238.218 179.036 238.546 178.86C238.882 178.684 239.15 178.416 239.35 178.056C239.558 177.688 239.662 177.24 239.662 176.712C239.662 176.176 239.558 175.728 239.35 175.368C239.15 175 238.882 174.728 238.546 174.552C238.218 174.376 237.858 174.288 237.466 174.288ZM243.281 174.744C243.497 174.288 243.813 173.936 244.229 173.688C244.645 173.432 245.141 173.304 245.717 173.304V174.492H245.381C244.765 174.492 244.261 174.652 243.869 174.972C243.477 175.284 243.281 175.804 243.281 176.532V180H242.189V173.412H243.281V174.744Z" fill="white"/>
<line x1="213.5" y1="263" x2="213.5" y2="313" stroke="white"/>
<line x1="213.5" y1="416" x2="213.5" y2="466" stroke="white"/>
<line x1="213.5" y1="569" x2="213.5" y2="619" stroke="white"/>
<path d="M223.088 390.147C223.515 390.147 223.877 390.296 224.176 390.595C224.475 390.893 224.624 391.256 224.624 391.683C224.624 392.109 224.475 392.472 224.176 392.771C223.877 393.069 223.515 393.219 223.088 393.219H201.136C200.709 393.219 200.347 393.069 200.048 392.771C199.749 392.472 199.6 392.109 199.6 391.683V388.611C199.6 388.077 199.696 387.576 199.888 387.107C200.08 386.616 200.347 386.2 200.688 385.859C201.051 385.496 201.456 385.219 201.904 385.027C202.373 384.813 202.885 384.707 203.44 384.707H220.432C220.752 384.707 221.029 384.6 221.264 384.387C221.52 384.152 221.648 383.864 221.648 383.523C221.648 383.203 221.52 382.925 221.264 382.691C221.029 382.456 220.752 382.339 220.432 382.339H201.136C200.709 382.339 200.347 382.189 200.048 381.891C199.749 381.592 199.6 381.229 199.6 380.803C199.6 380.376 199.749 380.013 200.048 379.715C200.347 379.416 200.709 379.267 201.136 379.267H220.304C220.901 379.267 221.456 379.384 221.968 379.619C222.501 379.832 222.96 380.131 223.344 380.515C223.749 380.899 224.059 381.347 224.272 381.859C224.507 382.371 224.624 382.925 224.624 383.523C224.624 384.12 224.507 384.675 224.272 385.187C224.059 385.699 223.749 386.147 223.344 386.531C222.96 386.915 222.501 387.224 221.968 387.459C221.456 387.672 220.901 387.779 220.304 387.779H203.632C203.355 387.821 203.12 387.949 202.928 388.163C202.736 388.376 202.64 388.643 202.64 388.963V390.147H223.088Z" fill="white"/>
<circle cx="213.055" cy="386.055" r="42.5546" stroke="white" stroke-opacity="0.2"/>
<circle cx="213.054" cy="386.055" r="29.7025" stroke="white"/>
<path d="M188.004 328.764C188.004 329.62 187.832 330.368 187.488 331.008C187.144 331.64 186.636 332.132 185.964 332.484C185.3 332.828 184.5 333 183.564 333H180.876V324.54H183.564C184.5 324.54 185.3 324.712 185.964 325.056C186.636 325.392 187.144 325.88 187.488 326.52C187.832 327.152 188.004 327.9 188.004 328.764ZM183.48 332.016C184.584 332.016 185.428 331.732 186.012 331.164C186.596 330.596 186.888 329.796 186.888 328.764C186.888 327.732 186.596 326.932 186.012 326.364C185.436 325.788 184.592 325.5 183.48 325.5H181.968V332.016H183.48ZM189.286 324.48C189.286 324.28 189.354 324.12 189.49 324C189.626 323.872 189.806 323.808 190.03 323.808C190.254 323.808 190.434 323.872 190.57 324C190.706 324.12 190.774 324.28 190.774 324.48C190.774 324.68 190.706 324.844 190.57 324.972C190.434 325.092 190.254 325.152 190.03 325.152C189.806 325.152 189.626 325.092 189.49 324.972C189.354 324.844 189.286 324.68 189.286 324.48ZM190.57 326.412V333H189.478V326.412H190.57ZM195.025 326.328C195.665 326.328 196.205 326.488 196.645 326.808C197.093 327.128 197.405 327.556 197.581 328.092V326.412H198.673V333H197.581V331.32C197.405 331.856 197.093 332.284 196.645 332.604C196.205 332.924 195.665 333.084 195.025 333.084C194.441 333.084 193.921 332.948 193.465 332.676C193.009 332.404 192.649 332.016 192.385 331.512C192.129 331 192.001 330.4 192.001 329.712C192.001 329.024 192.129 328.424 192.385 327.912C192.649 327.4 193.009 327.008 193.465 326.736C193.921 326.464 194.441 326.328 195.025 326.328ZM195.337 327.3C194.665 327.3 194.125 327.516 193.717 327.948C193.317 328.372 193.117 328.96 193.117 329.712C193.117 330.464 193.317 331.056 193.717 331.488C194.125 331.912 194.665 332.124 195.337 332.124C195.769 332.124 196.153 332.024 196.489 331.824C196.833 331.624 197.101 331.344 197.293 330.984C197.485 330.616 197.581 330.192 197.581 329.712C197.581 329.232 197.485 328.808 197.293 328.44C197.101 328.072 196.833 327.792 196.489 327.6C196.153 327.4 195.769 327.3 195.337 327.3ZM201.503 324.12V333H200.411V324.12H201.503ZM213.352 328.764C213.352 329.62 213.18 330.368 212.836 331.008C212.492 331.64 211.984 332.132 211.312 332.484C210.648 332.828 209.848 333 208.912 333H206.224V324.54H208.912C209.848 324.54 210.648 324.712 211.312 325.056C211.984 325.392 212.492 325.88 212.836 326.52C213.18 327.152 213.352 327.9 213.352 328.764ZM208.828 332.016C209.932 332.016 210.776 331.732 211.36 331.164C211.944 330.596 212.236 329.796 212.236 328.764C212.236 327.732 211.944 326.932 211.36 326.364C210.784 325.788 209.94 325.5 208.828 325.5H207.316V332.016H208.828ZM220.885 329.34C220.885 329.572 220.869 329.772 220.837 329.94H215.569C215.593 330.692 215.805 331.256 216.205 331.632C216.613 332.008 217.109 332.196 217.693 332.196C218.221 332.196 218.661 332.064 219.013 331.8C219.373 331.528 219.593 331.168 219.673 330.72H220.837C220.757 331.176 220.577 331.584 220.297 331.944C220.025 332.304 219.669 332.584 219.229 332.784C218.789 332.984 218.293 333.084 217.741 333.084C217.109 333.084 216.549 332.948 216.061 332.676C215.573 332.404 215.189 332.016 214.909 331.512C214.637 331 214.501 330.4 214.501 329.712C214.501 329.024 214.637 328.424 214.909 327.912C215.189 327.4 215.573 327.008 216.061 326.736C216.549 326.464 217.109 326.328 217.741 326.328C218.381 326.328 218.937 326.464 219.409 326.736C219.889 327.008 220.253 327.372 220.501 327.828C220.757 328.284 220.885 328.788 220.885 329.34ZM219.781 329.412C219.805 328.924 219.725 328.516 219.541 328.188C219.357 327.86 219.105 327.616 218.785 327.456C218.465 327.296 218.117 327.216 217.741 327.216C217.141 327.216 216.637 327.404 216.229 327.78C215.821 328.148 215.601 328.692 215.569 329.412H219.781ZM224.378 326.328C225.122 326.328 225.718 326.524 226.166 326.916C226.622 327.3 226.898 327.82 226.994 328.476H225.95C225.902 328.084 225.738 327.764 225.458 327.516C225.186 327.26 224.818 327.132 224.354 327.132C223.962 327.132 223.654 327.228 223.43 327.42C223.214 327.604 223.106 327.856 223.106 328.176C223.106 328.416 223.178 328.612 223.322 328.764C223.474 328.908 223.658 329.02 223.874 329.1C224.098 329.172 224.402 329.252 224.786 329.34C225.274 329.452 225.666 329.568 225.962 329.688C226.266 329.8 226.522 329.984 226.73 330.24C226.946 330.496 227.054 330.84 227.054 331.272C227.054 331.808 226.85 332.244 226.442 332.58C226.042 332.916 225.506 333.084 224.834 333.084C224.05 333.084 223.41 332.896 222.914 332.52C222.418 332.144 222.126 331.62 222.038 330.948H223.094C223.134 331.348 223.306 331.672 223.61 331.92C223.922 332.168 224.33 332.292 224.834 332.292C225.21 332.292 225.502 332.196 225.71 332.004C225.926 331.812 226.034 331.56 226.034 331.248C226.034 330.992 225.958 330.788 225.806 330.636C225.654 330.484 225.466 330.368 225.242 330.288C225.018 330.208 224.71 330.124 224.318 330.036C223.83 329.924 223.438 329.812 223.142 329.7C222.854 329.588 222.606 329.412 222.398 329.172C222.198 328.924 222.098 328.592 222.098 328.176C222.098 327.624 222.302 327.18 222.71 326.844C223.118 326.5 223.674 326.328 224.378 326.328ZM228.321 324.48C228.321 324.28 228.389 324.12 228.525 324C228.661 323.872 228.841 323.808 229.065 323.808C229.289 323.808 229.469 323.872 229.605 324C229.741 324.12 229.809 324.28 229.809 324.48C229.809 324.68 229.741 324.844 229.605 324.972C229.469 325.092 229.289 325.152 229.065 325.152C228.841 325.152 228.661 325.092 228.525 324.972C228.389 324.844 228.321 324.68 228.321 324.48ZM229.605 326.412V333H228.513V326.412H229.605ZM234.06 326.328C234.7 326.328 235.24 326.488 235.68 326.808C236.128 327.128 236.44 327.556 236.616 328.092V326.412H237.708V333.108C237.708 333.716 237.58 334.256 237.324 334.728C237.068 335.2 236.708 335.568 236.244 335.832C235.78 336.096 235.24 336.228 234.624 336.228C233.736 336.228 233.012 336.012 232.452 335.58C231.892 335.156 231.536 334.58 231.384 333.852H232.464C232.592 334.292 232.832 334.636 233.184 334.884C233.544 335.14 234.004 335.268 234.564 335.268C235.156 335.268 235.644 335.076 236.028 334.692C236.42 334.316 236.616 333.788 236.616 333.108V331.32C236.44 331.856 236.128 332.284 235.68 332.604C235.24 332.924 234.7 333.084 234.06 333.084C233.476 333.084 232.956 332.948 232.5 332.676C232.044 332.404 231.684 332.016 231.42 331.512C231.164 331 231.036 330.4 231.036 329.712C231.036 329.024 231.164 328.424 231.42 327.912C231.684 327.4 232.044 327.008 232.5 326.736C232.956 326.464 233.476 326.328 234.06 326.328ZM234.372 327.3C233.7 327.3 233.16 327.516 232.752 327.948C232.352 328.372 232.152 328.96 232.152 329.712C232.152 330.464 232.352 331.056 232.752 331.488C233.16 331.912 233.7 332.124 234.372 332.124C234.804 332.124 235.188 332.024 235.524 331.824C235.868 331.624 236.136 331.344 236.328 330.984C236.52 330.616 236.616 330.192 236.616 329.712C236.616 329.232 236.52 328.808 236.328 328.44C236.136 328.072 235.868 327.792 235.524 327.6C235.188 327.4 234.804 327.3 234.372 327.3ZM242.914 326.304C243.682 326.304 244.302 326.552 244.774 327.048C245.246 327.536 245.482 328.244 245.482 329.172V333H244.39V329.268C244.39 328.612 244.222 328.108 243.886 327.756C243.55 327.404 243.094 327.228 242.518 327.228C241.918 327.228 241.438 327.424 241.078 327.816C240.718 328.2 240.538 328.764 240.538 329.508V333H239.446V326.412H240.538V327.972C240.706 327.436 241.002 327.024 241.426 326.736C241.858 326.448 242.354 326.304 242.914 326.304Z" fill="white"/>
<path d="M193.004 481.764C193.004 482.62 192.832 483.368 192.488 484.008C192.144 484.64 191.636 485.132 190.964 485.484C190.3 485.828 189.5 486 188.564 486H185.876V477.54H188.564C189.5 477.54 190.3 477.712 190.964 478.056C191.636 478.392 192.144 478.88 192.488 479.52C192.832 480.152 193.004 480.9 193.004 481.764ZM188.48 485.016C189.584 485.016 190.428 484.732 191.012 484.164C191.596 483.596 191.888 482.796 191.888 481.764C191.888 480.732 191.596 479.932 191.012 479.364C190.436 478.788 189.592 478.5 188.48 478.5H186.968V485.016H188.48ZM194.286 477.48C194.286 477.28 194.354 477.12 194.49 477C194.626 476.872 194.806 476.808 195.03 476.808C195.254 476.808 195.434 476.872 195.57 477C195.706 477.12 195.774 477.28 195.774 477.48C195.774 477.68 195.706 477.844 195.57 477.972C195.434 478.092 195.254 478.152 195.03 478.152C194.806 478.152 194.626 478.092 194.49 477.972C194.354 477.844 194.286 477.68 194.286 477.48ZM195.57 479.412V486H194.478V479.412H195.57ZM200.025 479.328C200.665 479.328 201.205 479.488 201.645 479.808C202.093 480.128 202.405 480.556 202.581 481.092V479.412H203.673V486H202.581V484.32C202.405 484.856 202.093 485.284 201.645 485.604C201.205 485.924 200.665 486.084 200.025 486.084C199.441 486.084 198.921 485.948 198.465 485.676C198.009 485.404 197.649 485.016 197.385 484.512C197.129 484 197.001 483.4 197.001 482.712C197.001 482.024 197.129 481.424 197.385 480.912C197.649 480.4 198.009 480.008 198.465 479.736C198.921 479.464 199.441 479.328 200.025 479.328ZM200.337 480.3C199.665 480.3 199.125 480.516 198.717 480.948C198.317 481.372 198.117 481.96 198.117 482.712C198.117 483.464 198.317 484.056 198.717 484.488C199.125 484.912 199.665 485.124 200.337 485.124C200.769 485.124 201.153 485.024 201.489 484.824C201.833 484.624 202.101 484.344 202.293 483.984C202.485 483.616 202.581 483.192 202.581 482.712C202.581 482.232 202.485 481.808 202.293 481.44C202.101 481.072 201.833 480.792 201.489 480.6C201.153 480.4 200.769 480.3 200.337 480.3ZM206.503 477.12V486H205.411V477.12H206.503ZM214.968 477.456C216 477.456 216.852 477.712 217.524 478.224C218.196 478.728 218.66 479.42 218.916 480.3H217.764C217.548 479.74 217.2 479.296 216.72 478.968C216.24 478.632 215.652 478.464 214.956 478.464C214.404 478.464 213.908 478.6 213.468 478.872C213.036 479.136 212.692 479.52 212.436 480.024C212.188 480.52 212.064 481.104 212.064 481.776C212.064 482.44 212.188 483.02 212.436 483.516C212.692 484.012 213.036 484.396 213.468 484.668C213.908 484.932 214.404 485.064 214.956 485.064C215.652 485.064 216.24 484.9 216.72 484.572C217.2 484.236 217.548 483.788 217.764 483.228H218.916C218.66 484.108 218.196 484.804 217.524 485.316C216.852 485.82 216 486.072 214.968 486.072C214.176 486.072 213.476 485.892 212.868 485.532C212.26 485.164 211.784 484.656 211.44 484.008C211.104 483.352 210.936 482.608 210.936 481.776C210.936 480.936 211.104 480.188 211.44 479.532C211.784 478.876 212.26 478.368 212.868 478.008C213.476 477.64 214.176 477.456 214.968 477.456ZM223.364 479.328C223.996 479.328 224.56 479.464 225.056 479.736C225.56 480.008 225.952 480.4 226.232 480.912C226.52 481.424 226.664 482.024 226.664 482.712C226.664 483.4 226.52 484 226.232 484.512C225.952 485.016 225.56 485.404 225.056 485.676C224.56 485.948 223.996 486.084 223.364 486.084C222.732 486.084 222.164 485.948 221.66 485.676C221.164 485.404 220.772 485.016 220.484 484.512C220.196 484 220.052 483.4 220.052 482.712C220.052 482.024 220.196 481.424 220.484 480.912C220.772 480.4 221.164 480.008 221.66 479.736C222.164 479.464 222.732 479.328 223.364 479.328ZM223.364 480.288C222.972 480.288 222.608 480.376 222.272 480.552C221.944 480.728 221.676 481 221.468 481.368C221.268 481.728 221.168 482.176 221.168 482.712C221.168 483.24 221.268 483.688 221.468 484.056C221.676 484.416 221.944 484.684 222.272 484.86C222.608 485.036 222.972 485.124 223.364 485.124C223.756 485.124 224.116 485.036 224.444 484.86C224.78 484.684 225.048 484.416 225.248 484.056C225.456 483.688 225.56 483.24 225.56 482.712C225.56 482.176 225.456 481.728 225.248 481.368C225.048 481 224.78 480.728 224.444 480.552C224.116 480.376 223.756 480.288 223.364 480.288ZM229.179 477.12V486H228.087V477.12H229.179ZM233.923 479.328C234.555 479.328 235.119 479.464 235.615 479.736C236.119 480.008 236.511 480.4 236.791 480.912C237.079 481.424 237.223 482.024 237.223 482.712C237.223 483.4 237.079 484 236.791 484.512C236.511 485.016 236.119 485.404 235.615 485.676C235.119 485.948 234.555 486.084 233.923 486.084C233.291 486.084 232.723 485.948 232.219 485.676C231.723 485.404 231.331 485.016 231.043 484.512C230.755 484 230.611 483.4 230.611 482.712C230.611 482.024 230.755 481.424 231.043 480.912C231.331 480.4 231.723 480.008 232.219 479.736C232.723 479.464 233.291 479.328 233.923 479.328ZM233.923 480.288C233.531 480.288 233.167 480.376 232.831 480.552C232.503 480.728 232.235 481 232.027 481.368C231.827 481.728 231.727 482.176 231.727 482.712C231.727 483.24 231.827 483.688 232.027 484.056C232.235 484.416 232.503 484.684 232.831 484.86C233.167 485.036 233.531 485.124 233.923 485.124C234.315 485.124 234.675 485.036 235.003 484.86C235.339 484.684 235.607 484.416 235.807 484.056C236.015 483.688 236.119 483.24 236.119 482.712C236.119 482.176 236.015 481.728 235.807 481.368C235.607 481 235.339 480.728 235.003 480.552C234.675 480.376 234.315 480.288 233.923 480.288ZM239.738 480.744C239.954 480.288 240.27 479.936 240.686 479.688C241.102 479.432 241.598 479.304 242.174 479.304V480.492H241.838C241.222 480.492 240.718 480.652 240.326 480.972C239.934 481.284 239.738 481.804 239.738 482.532V486H238.646V479.412H239.738V480.744Z" fill="white"/>
<path d="M181.228 636.804C181.228 637.204 181.132 637.576 180.94 637.92C180.748 638.264 180.456 638.544 180.064 638.76C179.672 638.976 179.188 639.084 178.612 639.084C178.052 639.084 177.552 638.984 177.112 638.784C176.68 638.576 176.332 638.296 176.068 637.944C175.812 637.584 175.664 637.176 175.624 636.72H176.788C176.812 636.96 176.892 637.196 177.028 637.428C177.172 637.652 177.372 637.84 177.628 637.992C177.892 638.136 178.208 638.208 178.576 638.208C179.056 638.208 179.424 638.08 179.68 637.824C179.936 637.568 180.064 637.24 180.064 636.84C180.064 636.496 179.972 636.216 179.788 636C179.612 635.784 179.392 635.616 179.128 635.496C178.864 635.368 178.504 635.232 178.048 635.088C177.512 634.912 177.08 634.748 176.752 634.596C176.432 634.436 176.156 634.2 175.924 633.888C175.7 633.576 175.588 633.164 175.588 632.652C175.588 632.212 175.692 631.824 175.9 631.488C176.116 631.152 176.42 630.892 176.812 630.708C177.212 630.524 177.68 630.432 178.216 630.432C179.048 630.432 179.708 630.636 180.196 631.044C180.684 631.444 180.968 631.956 181.048 632.58H179.872C179.808 632.244 179.636 631.948 179.356 631.692C179.076 631.436 178.696 631.308 178.216 631.308C177.776 631.308 177.424 631.424 177.16 631.656C176.896 631.88 176.764 632.2 176.764 632.616C176.764 632.944 176.848 633.212 177.016 633.42C177.192 633.62 177.408 633.78 177.664 633.9C177.92 634.012 178.272 634.14 178.72 634.284C179.264 634.46 179.7 634.628 180.028 634.788C180.364 634.948 180.648 635.192 180.88 635.52C181.112 635.84 181.228 636.268 181.228 636.804ZM185.84 638.04V639H185.024C184.352 639 183.848 638.84 183.512 638.52C183.184 638.2 183.02 637.664 183.02 636.912V633.36H182.036V632.412H183.02V630.768H184.124V632.412H185.828V633.36H184.124V636.936C184.124 637.36 184.2 637.652 184.352 637.812C184.512 637.964 184.784 638.04 185.168 638.04H185.84ZM188.265 633.744C188.481 633.288 188.797 632.936 189.213 632.688C189.629 632.432 190.125 632.304 190.701 632.304V633.492H190.365C189.749 633.492 189.245 633.652 188.853 633.972C188.461 634.284 188.265 634.804 188.265 635.532V639H187.173V632.412H188.265V633.744ZM194.478 632.328C195.118 632.328 195.658 632.488 196.098 632.808C196.546 633.128 196.858 633.556 197.034 634.092V632.412H198.126V639H197.034V637.32C196.858 637.856 196.546 638.284 196.098 638.604C195.658 638.924 195.118 639.084 194.478 639.084C193.894 639.084 193.374 638.948 192.918 638.676C192.462 638.404 192.102 638.016 191.838 637.512C191.582 637 191.454 636.4 191.454 635.712C191.454 635.024 191.582 634.424 191.838 633.912C192.102 633.4 192.462 633.008 192.918 632.736C193.374 632.464 193.894 632.328 194.478 632.328ZM194.79 633.3C194.118 633.3 193.578 633.516 193.17 633.948C192.77 634.372 192.57 634.96 192.57 635.712C192.57 636.464 192.77 637.056 193.17 637.488C193.578 637.912 194.118 638.124 194.79 638.124C195.222 638.124 195.606 638.024 195.942 637.824C196.286 637.624 196.554 637.344 196.746 636.984C196.938 636.616 197.034 636.192 197.034 635.712C197.034 635.232 196.938 634.808 196.746 634.44C196.554 634.072 196.286 633.792 195.942 633.6C195.606 633.4 195.222 633.3 194.79 633.3ZM203.5 632.328C204.084 632.328 204.604 632.464 205.06 632.736C205.516 633.008 205.872 633.4 206.128 633.912C206.392 634.424 206.524 635.024 206.524 635.712C206.524 636.4 206.392 637 206.128 637.512C205.872 638.016 205.516 638.404 205.06 638.676C204.604 638.948 204.084 639.084 203.5 639.084C202.86 639.084 202.316 638.924 201.868 638.604C201.428 638.276 201.124 637.848 200.956 637.32V642.12H199.864V632.412H200.956V634.092C201.124 633.564 201.428 633.14 201.868 632.82C202.316 632.492 202.86 632.328 203.5 632.328ZM203.188 633.3C202.764 633.3 202.38 633.4 202.036 633.6C201.692 633.792 201.424 634.072 201.232 634.44C201.04 634.808 200.944 635.232 200.944 635.712C200.944 636.192 201.04 636.616 201.232 636.984C201.424 637.344 201.692 637.624 202.036 637.824C202.38 638.024 202.764 638.124 203.188 638.124C203.868 638.124 204.408 637.912 204.808 637.488C205.216 637.056 205.42 636.464 205.42 635.712C205.42 634.96 205.216 634.372 204.808 633.948C204.408 633.516 203.868 633.3 203.188 633.3ZM218.043 634.764C218.043 635.62 217.871 636.368 217.527 637.008C217.183 637.64 216.675 638.132 216.003 638.484C215.339 638.828 214.539 639 213.603 639H210.915V630.54H213.603C214.539 630.54 215.339 630.712 216.003 631.056C216.675 631.392 217.183 631.88 217.527 632.52C217.871 633.152 218.043 633.9 218.043 634.764ZM213.519 638.016C214.623 638.016 215.467 637.732 216.051 637.164C216.635 636.596 216.927 635.796 216.927 634.764C216.927 633.732 216.635 632.932 216.051 632.364C215.475 631.788 214.631 631.5 213.519 631.5H212.007V638.016H213.519ZM225.577 635.34C225.577 635.572 225.561 635.772 225.529 635.94H220.261C220.285 636.692 220.497 637.256 220.897 637.632C221.305 638.008 221.801 638.196 222.385 638.196C222.913 638.196 223.353 638.064 223.705 637.8C224.065 637.528 224.285 637.168 224.365 636.72H225.529C225.449 637.176 225.269 637.584 224.989 637.944C224.717 638.304 224.361 638.584 223.921 638.784C223.481 638.984 222.985 639.084 222.433 639.084C221.801 639.084 221.241 638.948 220.753 638.676C220.265 638.404 219.881 638.016 219.601 637.512C219.329 637 219.193 636.4 219.193 635.712C219.193 635.024 219.329 634.424 219.601 633.912C219.881 633.4 220.265 633.008 220.753 632.736C221.241 632.464 221.801 632.328 222.433 632.328C223.073 632.328 223.629 632.464 224.101 632.736C224.581 633.008 224.945 633.372 225.193 633.828C225.449 634.284 225.577 634.788 225.577 635.34ZM224.473 635.412C224.497 634.924 224.417 634.516 224.233 634.188C224.049 633.86 223.797 633.616 223.477 633.456C223.157 633.296 222.809 633.216 222.433 633.216C221.833 633.216 221.329 633.404 220.921 633.78C220.513 634.148 220.293 634.692 220.261 635.412H224.473ZM229.069 632.328C229.813 632.328 230.409 632.524 230.857 632.916C231.313 633.3 231.589 633.82 231.685 634.476H230.641C230.593 634.084 230.429 633.764 230.149 633.516C229.877 633.26 229.509 633.132 229.045 633.132C228.653 633.132 228.345 633.228 228.121 633.42C227.905 633.604 227.797 633.856 227.797 634.176C227.797 634.416 227.869 634.612 228.013 634.764C228.165 634.908 228.349 635.02 228.565 635.1C228.789 635.172 229.093 635.252 229.477 635.34C229.965 635.452 230.357 635.568 230.653 635.688C230.957 635.8 231.213 635.984 231.421 636.24C231.637 636.496 231.745 636.84 231.745 637.272C231.745 637.808 231.541 638.244 231.133 638.58C230.733 638.916 230.197 639.084 229.525 639.084C228.741 639.084 228.101 638.896 227.605 638.52C227.109 638.144 226.817 637.62 226.729 636.948H227.785C227.825 637.348 227.997 637.672 228.301 637.92C228.613 638.168 229.021 638.292 229.525 638.292C229.901 638.292 230.193 638.196 230.401 638.004C230.617 637.812 230.725 637.56 230.725 637.248C230.725 636.992 230.649 636.788 230.497 636.636C230.345 636.484 230.157 636.368 229.933 636.288C229.709 636.208 229.401 636.124 229.009 636.036C228.521 635.924 228.129 635.812 227.833 635.7C227.545 635.588 227.297 635.412 227.089 635.172C226.889 634.924 226.789 634.592 226.789 634.176C226.789 633.624 226.993 633.18 227.401 632.844C227.809 632.5 228.365 632.328 229.069 632.328ZM233.012 630.48C233.012 630.28 233.08 630.12 233.216 630C233.352 629.872 233.532 629.808 233.756 629.808C233.98 629.808 234.16 629.872 234.296 630C234.432 630.12 234.5 630.28 234.5 630.48C234.5 630.68 234.432 630.844 234.296 630.972C234.16 631.092 233.98 631.152 233.756 631.152C233.532 631.152 233.352 631.092 233.216 630.972C233.08 630.844 233.012 630.68 233.012 630.48ZM234.296 632.412V639H233.204V632.412H234.296ZM238.752 632.328C239.392 632.328 239.932 632.488 240.372 632.808C240.82 633.128 241.132 633.556 241.308 634.092V632.412H242.4V639.108C242.4 639.716 242.272 640.256 242.016 640.728C241.76 641.2 241.4 641.568 240.936 641.832C240.472 642.096 239.932 642.228 239.316 642.228C238.428 642.228 237.704 642.012 237.144 641.58C236.584 641.156 236.228 640.58 236.076 639.852H237.156C237.284 640.292 237.524 640.636 237.876 640.884C238.236 641.14 238.696 641.268 239.256 641.268C239.848 641.268 240.336 641.076 240.72 640.692C241.112 640.316 241.308 639.788 241.308 639.108V637.32C241.132 637.856 240.82 638.284 240.372 638.604C239.932 638.924 239.392 639.084 238.752 639.084C238.168 639.084 237.648 638.948 237.192 638.676C236.736 638.404 236.376 638.016 236.112 637.512C235.856 637 235.728 636.4 235.728 635.712C235.728 635.024 235.856 634.424 236.112 633.912C236.376 633.4 236.736 633.008 237.192 632.736C237.648 632.464 238.168 632.328 238.752 632.328ZM239.064 633.3C238.392 633.3 237.852 633.516 237.444 633.948C237.044 634.372 236.844 634.96 236.844 635.712C236.844 636.464 237.044 637.056 237.444 637.488C237.852 637.912 238.392 638.124 239.064 638.124C239.496 638.124 239.88 638.024 240.216 637.824C240.56 637.624 240.828 637.344 241.02 636.984C241.212 636.616 241.308 636.192 241.308 635.712C241.308 635.232 241.212 634.808 241.02 634.44C240.828 634.072 240.56 633.792 240.216 633.6C239.88 633.4 239.496 633.3 239.064 633.3ZM247.606 632.304C248.374 632.304 248.994 632.552 249.466 633.048C249.938 633.536 250.174 634.244 250.174 635.172V639H249.082V635.268C249.082 634.612 248.914 634.108 248.578 633.756C248.242 633.404 247.786 633.228 247.21 633.228C246.61 633.228 246.13 633.424 245.77 633.816C245.41 634.2 245.23 634.764 245.23 635.508V639H244.138V632.412H245.23V633.972C245.398 633.436 245.694 633.024 246.118 632.736C246.55 632.448 247.046 632.304 247.606 632.304Z" fill="white"/>
</svg>
