<svg width="33" height="310" viewBox="0 0 33 310" fill="none" xmlns="http://www.w3.org/2000/svg">
<path d="M17.254 299.01C17.254 298.823 17.3193 298.665 17.45 298.534C17.5807 298.403 17.7393 298.338 17.926 298.338C18.1127 298.338 18.2713 298.403 18.402 298.534C18.5327 298.665 18.598 298.823 18.598 299.01L18.598 306.262C18.598 306.449 18.5327 306.607 18.402 306.738C18.2713 306.869 18.1127 306.934 17.926 306.934C17.7393 306.934 17.5807 306.869 17.45 306.738C17.3193 306.607 17.254 306.449 17.254 306.262L17.254 299.01ZM17.926 309.286C17.5713 309.286 17.2167 309.23 16.862 309.118C16.498 308.997 16.1713 308.824 15.882 308.6C15.5833 308.376 15.3407 308.105 15.154 307.788C14.9673 307.471 14.874 307.111 14.874 306.71L14.874 298.688C14.874 298.501 14.9393 298.343 15.07 298.212C15.2007 298.081 15.3593 298.016 15.546 298.016C15.7327 298.016 15.8913 298.081 16.022 298.212C16.1527 298.343 16.218 298.501 16.218 298.688L16.218 306.416C16.218 306.724 16.2693 306.976 16.372 307.172C16.4747 307.368 16.61 307.522 16.778 307.634C16.9367 307.746 17.1093 307.825 17.296 307.872C17.4827 307.909 17.66 307.933 17.828 307.942L20.306 307.942C20.4927 307.942 20.6513 308.007 20.782 308.138C20.9127 308.269 20.978 308.427 20.978 308.614C20.978 308.801 20.9127 308.959 20.782 309.09C20.6513 309.221 20.4927 309.286 20.306 309.286L17.926 309.286ZM19.634 281.94C19.634 281.623 19.578 281.362 19.466 281.156C19.3447 280.951 19.2 280.792 19.032 280.68C18.864 280.559 18.682 280.48 18.486 280.442C18.2807 280.396 18.094 280.372 17.926 280.372C17.758 280.372 17.576 280.396 17.38 280.442C17.1747 280.48 16.988 280.559 16.82 280.68C16.652 280.792 16.512 280.951 16.4 281.156C16.2787 281.362 16.218 281.623 16.218 281.94L16.218 287.596C16.218 287.923 16.2787 288.189 16.4 288.394C16.512 288.59 16.652 288.749 16.82 288.87C16.988 288.982 17.1747 289.062 17.38 289.108C17.576 289.146 17.758 289.164 17.926 289.164C18.094 289.164 18.2807 289.146 18.486 289.108C18.682 289.062 18.864 288.982 19.032 288.87C19.2 288.749 19.3447 288.59 19.466 288.394C19.578 288.189 19.634 287.923 19.634 287.596L19.634 281.94ZM17.926 279.07C18.2807 279.07 18.64 279.131 19.004 279.252C19.3587 279.364 19.6853 279.532 19.984 279.756C20.2733 279.98 20.5113 280.251 20.698 280.568C20.8847 280.886 20.978 281.245 20.978 281.646L20.978 288.03C20.9593 288.413 20.8567 288.754 20.67 289.052C20.474 289.351 20.2313 289.608 19.942 289.822C19.6527 290.028 19.3307 290.186 18.976 290.298C18.6213 290.41 18.2713 290.466 17.926 290.466C17.5713 290.466 17.2167 290.41 16.862 290.298C16.498 290.177 16.1713 290.004 15.882 289.78C15.5833 289.556 15.3407 289.286 15.154 288.968C14.9673 288.651 14.874 288.292 14.874 287.89L14.874 281.506C14.8927 281.124 15 280.783 15.196 280.484C15.3827 280.186 15.6207 279.934 15.91 279.728C16.1993 279.514 16.5213 279.35 16.876 279.238C17.2307 279.126 17.5807 279.07 17.926 279.07ZM20.978 269.591C20.978 269.853 20.9313 270.1 20.838 270.333C20.7353 270.567 20.6 270.772 20.432 270.949C20.264 271.117 20.068 271.253 19.844 271.355C19.62 271.458 19.3773 271.509 19.116 271.509L15.546 271.509C15.3593 271.509 15.2007 271.444 15.07 271.313C14.9393 271.183 14.874 271.024 14.874 270.837C14.874 270.66 14.9393 270.506 15.07 270.375C15.2007 270.235 15.3593 270.165 15.546 270.165L19.116 270.165C19.256 270.165 19.3773 270.114 19.48 270.011C19.5827 269.899 19.634 269.773 19.634 269.633L19.634 261.233C19.634 261.047 19.6993 260.888 19.83 260.757C19.9607 260.627 20.1193 260.561 20.306 260.561C20.4927 260.561 20.6513 260.627 20.782 260.757C20.9127 260.888 20.978 261.047 20.978 261.233L20.978 269.591ZM20.978 251.086C20.978 251.347 20.9313 251.594 20.838 251.828C20.7353 252.061 20.6 252.266 20.432 252.444C20.264 252.612 20.068 252.747 19.844 252.85C19.62 252.952 19.3773 253.004 19.116 253.004L15.546 253.004C15.3593 253.004 15.2007 252.938 15.07 252.808C14.9393 252.677 14.874 252.518 14.874 252.332C14.874 252.154 14.9393 252 15.07 251.87C15.2007 251.73 15.3593 251.66 15.546 251.66L19.116 251.66C19.256 251.66 19.3773 251.608 19.48 251.506C19.5827 251.394 19.634 251.268 19.634 251.128L19.634 242.728C19.634 242.541 19.6993 242.382 19.83 242.252C19.9607 242.121 20.1193 242.056 20.306 242.056C20.4927 242.056 20.6513 242.121 20.782 242.252C20.9127 242.382 20.978 242.541 20.978 242.728L20.978 251.086ZM19.634 226.327C19.634 226.01 19.578 225.749 19.466 225.543C19.3447 225.338 19.2 225.179 19.032 225.067C18.864 224.946 18.682 224.867 18.486 224.829C18.2807 224.783 18.094 224.759 17.926 224.759C17.758 224.759 17.576 224.783 17.38 224.829C17.1747 224.867 16.988 224.946 16.82 225.067C16.652 225.179 16.512 225.338 16.4 225.543C16.2787 225.749 16.218 226.01 16.218 226.327L16.218 231.983C16.218 232.31 16.2787 232.576 16.4 232.781C16.512 232.977 16.652 233.136 16.82 233.257C16.988 233.369 17.1747 233.449 17.38 233.495C17.576 233.533 17.758 233.551 17.926 233.551C18.094 233.551 18.2807 233.533 18.486 233.495C18.682 233.449 18.864 233.369 19.032 233.257C19.2 233.136 19.3447 232.977 19.466 232.781C19.578 232.576 19.634 232.31 19.634 231.983L19.634 226.327ZM17.926 223.457C18.2807 223.457 18.64 223.518 19.004 223.639C19.3587 223.751 19.6853 223.919 19.984 224.143C20.2733 224.367 20.5113 224.638 20.698 224.955C20.8847 225.273 20.978 225.632 20.978 226.033L20.978 232.417C20.9593 232.8 20.8567 233.141 20.67 233.439C20.474 233.738 20.2313 233.995 19.942 234.209C19.6527 234.415 19.3307 234.573 18.976 234.685C18.6213 234.797 18.2713 234.853 17.926 234.853C17.5713 234.853 17.2167 234.797 16.862 234.685C16.498 234.564 16.1713 234.391 15.882 234.167C15.5833 233.943 15.3407 233.673 15.154 233.355C14.9673 233.038 14.874 232.679 14.874 232.277L14.874 225.893C14.8927 225.511 15 225.17 15.196 224.871C15.3827 224.573 15.6207 224.321 15.91 224.115C16.1993 223.901 16.5213 223.737 16.876 223.625C17.2307 223.513 17.5807 223.457 17.926 223.457ZM15.546 215.896C15.3593 215.896 15.2007 215.831 15.07 215.7C14.9393 215.57 14.874 215.411 14.874 215.224C14.874 215.038 14.9393 214.879 15.07 214.748C15.2007 214.618 15.3593 214.552 15.546 214.552L17.926 214.552C18.094 214.552 18.2807 214.534 18.486 214.496C18.682 214.45 18.864 214.37 19.032 214.258C19.2 214.137 19.3447 213.978 19.466 213.782C19.578 213.577 19.634 213.311 19.634 212.984L19.634 209.736C19.3727 209.886 19.0973 209.998 18.808 210.072C18.5093 210.147 18.2153 210.184 17.926 210.184L15.546 210.184C15.3593 210.184 15.2007 210.119 15.07 209.988C14.9393 209.858 14.874 209.699 14.874 209.512C14.874 209.326 14.9393 209.167 15.07 209.036C15.2007 208.906 15.3593 208.84 15.546 208.84L17.926 208.84C18.094 208.84 18.276 208.822 18.472 208.784C18.668 208.738 18.8547 208.663 19.032 208.56C19.2 208.448 19.3447 208.299 19.466 208.112C19.578 207.916 19.634 207.669 19.634 207.37L19.634 206.04C19.634 205.723 19.578 205.462 19.466 205.256C19.3447 205.051 19.2 204.892 19.032 204.78C18.864 204.659 18.682 204.58 18.486 204.542C18.2807 204.496 18.094 204.472 17.926 204.472L15.546 204.472C15.3593 204.472 15.2007 204.407 15.07 204.276C14.9393 204.146 14.874 203.987 14.874 203.8C14.874 203.614 14.9393 203.455 15.07 203.324C15.2007 203.194 15.3593 203.128 15.546 203.128L17.926 203.128C18.2807 203.128 18.64 203.189 19.004 203.31C19.3587 203.422 19.6853 203.59 19.984 203.814C20.2733 204.038 20.5113 204.309 20.698 204.626C20.8847 204.944 20.978 205.303 20.978 205.704L20.978 213.46C20.978 213.843 20.8847 214.184 20.698 214.482C20.5113 214.781 20.2733 215.038 19.984 215.252C19.6853 215.458 19.354 215.616 18.99 215.728C18.626 215.84 18.2713 215.896 17.926 215.896L15.546 215.896ZM17.926 181.766C18.094 181.766 18.2807 181.747 18.486 181.71C18.682 181.663 18.864 181.584 19.032 181.472C19.2 181.35 19.3447 181.192 19.466 180.996C19.578 180.79 19.634 180.524 19.634 180.198L19.634 174.626C19.634 174.308 19.578 174.047 19.466 173.842C19.3447 173.636 19.2 173.478 19.032 173.366C18.864 173.244 18.682 173.165 18.486 173.128C18.2807 173.081 18.094 173.058 17.926 173.058L15.56 173.058C15.3733 173.058 15.2147 172.992 15.084 172.862C14.9533 172.731 14.888 172.572 14.888 172.386C14.888 172.199 14.9533 172.04 15.084 171.91C15.2147 171.779 15.3733 171.714 15.56 171.714L17.926 171.714C18.2807 171.714 18.64 171.774 19.004 171.896C19.3587 172.008 19.6853 172.176 19.984 172.4C20.2733 172.624 20.5113 172.894 20.698 173.212C20.8847 173.529 20.978 173.888 20.978 174.29L20.978 180.674C20.9593 181.056 20.8567 181.397 20.67 181.696C20.474 181.994 20.2313 182.251 19.942 182.466C19.6527 182.671 19.3307 182.83 18.976 182.942C18.6213 183.054 18.2713 183.11 17.926 183.11L15.56 183.11C15.3733 183.11 15.2147 183.044 15.084 182.914C14.9533 182.783 14.888 182.624 14.888 182.438C14.888 182.251 14.9533 182.092 15.084 181.962C15.2147 181.831 15.3733 181.766 15.56 181.766L17.926 181.766ZM18.598 162.291C18.598 162.552 18.5513 162.795 18.458 163.019C18.3553 163.243 18.22 163.439 18.052 163.607C17.884 163.775 17.688 163.91 17.464 164.013C17.24 164.106 16.9973 164.153 16.736 164.153C16.4747 164.153 16.232 164.106 16.008 164.013C15.784 163.91 15.588 163.775 15.42 163.607C15.252 163.439 15.1213 163.243 15.028 163.019C14.9253 162.795 14.874 162.552 14.874 162.291L14.874 153.793C14.874 153.606 14.9393 153.447 15.07 153.317C15.2007 153.186 15.3593 153.121 15.546 153.121C15.7327 153.121 15.8913 153.186 16.022 153.317C16.1527 153.447 16.218 153.606 16.218 153.793L16.218 162.319C16.218 162.459 16.2693 162.585 16.372 162.697C16.4653 162.799 16.5867 162.851 16.736 162.851C16.876 162.851 16.9973 162.799 17.1 162.697C17.2027 162.585 17.254 162.459 17.254 162.319L17.254 154.577C17.254 154.315 17.3053 154.073 17.408 153.849C17.5013 153.615 17.632 153.415 17.8 153.247C17.968 153.079 18.1687 152.948 18.402 152.855C18.626 152.752 18.8687 152.701 19.13 152.701C19.3913 152.701 19.634 152.752 19.858 152.855C20.082 152.948 20.278 153.079 20.446 153.247C20.614 153.415 20.7447 153.615 20.838 153.849C20.9313 154.073 20.978 154.315 20.978 154.577L20.978 163.061C20.978 163.247 20.9127 163.406 20.782 163.537C20.6513 163.667 20.4927 163.733 20.306 163.733C20.1193 163.733 19.9607 163.667 19.83 163.537C19.6993 163.406 19.634 163.247 19.634 163.061L19.634 154.521C19.634 154.381 19.5873 154.259 19.494 154.157C19.3913 154.054 19.27 154.003 19.13 154.003C18.9807 154.003 18.8547 154.054 18.752 154.157C18.6493 154.259 18.598 154.381 18.598 154.521L18.598 162.291Z" fill="black"/>
<g filter="url(#filter0_d_1_13)">
<path d="M16.5 130C23.4036 130 29 124.404 29 117.5C29 110.596 23.4036 105 16.5 105C9.59644 105 4 110.596 4 117.5C4 124.404 9.59644 130 16.5 130Z" fill="white"/>
<path d="M21.3928 115.472C21.3853 115.064 21.3084 114.661 21.1656 114.279C21.0387 113.952 20.8451 113.655 20.597 113.407C20.3489 113.159 20.0517 112.966 19.7246 112.84C19.3426 112.697 18.9392 112.62 18.5315 112.612C18.0042 112.586 17.8371 112.58 16.5013 112.58C15.1656 112.58 14.9985 112.586 14.4741 112.609C14.0663 112.617 13.6629 112.693 13.2809 112.836C12.9519 112.96 12.654 113.154 12.4082 113.405C12.158 113.65 11.9642 113.947 11.84 114.275C11.6973 114.657 11.6204 115.06 11.6127 115.468C11.5877 115.997 11.582 116.164 11.582 117.5C11.582 118.836 11.5877 119.001 11.611 119.527C11.6185 119.935 11.6954 120.338 11.8383 120.72C11.9649 121.047 12.1583 121.344 12.4061 121.592C12.6539 121.84 12.9507 122.033 13.2775 122.16C13.6595 122.302 14.0629 122.379 14.4707 122.387C14.9951 122.41 15.1627 122.416 16.4979 122.416C17.8332 122.416 18.0008 122.41 18.5252 122.387C18.933 122.379 19.3364 122.303 19.7184 122.16C20.0453 122.033 20.3422 121.84 20.59 121.592C20.8378 121.344 21.0312 121.047 21.1576 120.72C21.3003 120.338 21.3771 119.935 21.3849 119.527C21.4082 119.003 21.4138 118.835 21.4138 117.5C21.4138 116.165 21.4138 115.997 21.3888 115.473L21.3928 115.472ZM20.5065 119.489C20.5029 119.801 20.4452 120.11 20.336 120.402C20.254 120.614 20.1286 120.807 19.9677 120.968C19.8068 121.129 19.6141 121.254 19.4019 121.336C19.1097 121.445 18.8008 121.503 18.4888 121.507C17.9701 121.53 17.8144 121.536 16.5002 121.536C15.186 121.536 15.0298 121.53 14.5116 121.507C14.1996 121.503 13.8907 121.446 13.5985 121.336C13.3851 121.258 13.192 121.132 13.0337 120.969C12.8709 120.811 12.7456 120.618 12.6667 120.405C12.5577 120.112 12.5 119.803 12.4962 119.491C12.4729 118.973 12.4673 118.817 12.4673 117.503C12.4673 116.189 12.4729 116.032 12.4962 115.514C12.4998 115.202 12.5575 114.893 12.6667 114.601C12.7452 114.387 12.8715 114.194 13.036 114.036C13.1946 113.873 13.3876 113.748 13.6008 113.669C13.893 113.56 14.2019 113.503 14.5138 113.499C15.0326 113.476 15.1883 113.47 16.5025 113.47C17.8167 113.47 17.9729 113.476 18.4911 113.499C18.803 113.502 19.112 113.56 19.4042 113.669C19.6176 113.748 19.8107 113.873 19.969 114.036C20.1318 114.195 20.2572 114.388 20.336 114.601C20.445 114.893 20.5027 115.202 20.5065 115.514C20.5298 116.033 20.5354 116.189 20.5354 117.503C20.5354 118.817 20.5298 118.969 20.5065 119.488V119.489Z" fill="black"/>
<path d="M16.5038 114.974C16.004 114.974 15.5154 115.122 15.0998 115.4C14.6842 115.677 14.3602 116.072 14.1689 116.534C13.9777 116.996 13.9276 117.504 14.0251 117.994C14.1226 118.484 14.3633 118.935 14.7168 119.288C15.0702 119.641 15.5205 119.882 16.0108 119.98C16.501 120.077 17.0092 120.027 17.471 119.836C17.9328 119.645 18.3275 119.321 18.6052 118.905C18.8829 118.489 19.0311 118.001 19.0311 117.501C19.031 116.831 18.7646 116.188 18.2907 115.714C17.8168 115.24 17.1741 114.974 16.5038 114.974ZM16.5038 119.14C16.1796 119.14 15.8627 119.044 15.5931 118.864C15.3236 118.684 15.1135 118.428 14.9894 118.128C14.8653 117.829 14.8329 117.499 14.8961 117.181C14.9594 116.863 15.1155 116.571 15.3447 116.342C15.574 116.113 15.8661 115.956 16.184 115.893C16.502 115.83 16.8316 115.862 17.1311 115.986C17.4307 116.111 17.6867 116.321 17.8668 116.59C18.0469 116.86 18.143 117.177 18.143 117.501C18.1429 117.936 17.9701 118.352 17.6628 118.66C17.3554 118.967 16.9385 119.14 16.5038 119.14Z" fill="black"/>
<path d="M19.7196 114.873C19.7196 114.99 19.685 115.104 19.6202 115.201C19.5554 115.298 19.4633 115.373 19.3555 115.418C19.2477 115.462 19.1292 115.474 19.0148 115.451C18.9004 115.429 18.7953 115.372 18.7128 115.29C18.6303 115.208 18.5741 115.102 18.5514 114.988C18.5286 114.874 18.5403 114.755 18.5849 114.647C18.6296 114.54 18.7052 114.447 18.8022 114.383C18.8991 114.318 19.0132 114.283 19.1298 114.283C19.2862 114.283 19.4363 114.345 19.5469 114.456C19.6575 114.567 19.7196 114.717 19.7196 114.873Z" fill="black"/>
</g>
<g filter="url(#filter1_d_1_13)">
<path d="M16.5 95C23.4036 95 29 89.4036 29 82.5C29 75.5964 23.4036 70 16.5 70C9.59644 70 4 75.5964 4 82.5C4 89.4036 9.59644 95 16.5 95Z" fill="white"/>
<path d="M22.3099 78.9798C21.8728 79.1704 21.4104 79.2971 20.9372 79.3559C21.436 79.0602 21.809 78.5918 21.9855 78.0395C21.5184 78.3164 21.0075 78.5115 20.4747 78.6162C20.148 78.2674 19.724 78.025 19.2578 77.9204C18.7916 77.8157 18.3046 77.8537 17.8603 78.0294C17.4159 78.205 17.0346 78.5102 16.7659 78.9054C16.4973 79.3005 16.3536 79.7673 16.3537 80.2451C16.3523 80.4277 16.3714 80.6099 16.4105 80.7883C15.4628 80.7418 14.5355 80.4958 13.6894 80.0663C12.8433 79.6369 12.0973 79.0337 11.5002 78.2963C11.1943 78.8201 11.0997 79.441 11.2356 80.0322C11.3716 80.6234 11.728 81.1405 12.2321 81.4781C11.855 81.468 11.486 81.3675 11.1559 81.1849V81.2145C11.1565 81.7646 11.3467 82.2977 11.6943 82.724C12.0419 83.1504 12.5257 83.444 13.0645 83.5554C12.8605 83.6091 12.6503 83.6355 12.4395 83.6338C12.288 83.6364 12.1368 83.6227 11.9883 83.5929C12.1428 84.0646 12.4395 84.477 12.8377 84.7734C13.2358 85.0698 13.716 85.2358 14.2122 85.2485C13.369 85.9091 12.3287 86.2678 11.2576 86.2673C11.0677 86.2684 10.878 86.2574 10.6895 86.2343C11.7787 86.9365 13.0481 87.3079 14.344 87.3037C15.2361 87.3099 16.1205 87.1389 16.9459 86.8004C17.7712 86.462 18.5212 85.9629 19.152 85.3322C19.7829 84.7015 20.2822 83.9517 20.6208 83.1264C20.9595 82.3011 21.1307 81.4167 21.1247 80.5247C21.1247 80.4196 21.1213 80.3179 21.1162 80.2167C21.586 79.8804 21.9905 79.4612 22.3099 78.9798Z" fill="black"/>
</g>
<g filter="url(#filter2_d_1_13)">
<path d="M16.5 60C23.4036 60 29 54.4036 29 47.5C29 40.5964 23.4036 35 16.5 35C9.59644 35 4 40.5964 4 47.5C4 54.4036 9.59644 60 16.5 60Z" fill="white"/>
<path d="M18.3041 43.705H19.3415V41.8981C19.1625 41.8735 18.547 41.8181 17.8301 41.8181C16.3344 41.8181 15.3097 42.7589 15.3097 44.4881V46.0795H13.6592V48.0994H15.3097V53.1818H17.3334V48.0998H18.9172L19.1686 46.08H17.3329V44.6884C17.3334 44.1046 17.4906 43.705 18.3041 43.705Z" fill="black"/>
</g>
<g filter="url(#filter3_d_1_13)">
<path d="M16.5 25C23.4036 25 29 19.4036 29 12.5C29 5.59644 23.4036 0 16.5 0C9.59644 0 4 5.59644 4 12.5C4 19.4036 9.59644 25 16.5 25Z" fill="white"/>
<path d="M19.7272 7.98259C18.945 7.23169 17.8625 6.81812 16.6792 6.81812C14.8715 6.81812 13.7598 7.55909 13.1454 8.18066C12.3883 8.94667 11.9541 9.96377 11.9541 10.9712C11.9541 12.2362 12.4832 13.2071 13.3692 13.5683C13.4287 13.5926 13.4886 13.6049 13.5473 13.6049C13.7342 13.6049 13.8823 13.4826 13.9336 13.2864C13.9635 13.1739 14.0328 12.8962 14.0629 12.7756C14.1274 12.5376 14.0753 12.4231 13.9347 12.2573C13.6784 11.9541 13.5591 11.5956 13.5591 11.1289C13.5591 9.74284 14.5911 8.26972 16.504 8.26972C18.0218 8.26972 18.9647 9.13238 18.9647 10.521C18.9647 11.3973 18.7759 12.2088 18.4331 12.8062C18.1949 13.2213 17.7759 13.7161 17.1328 13.7161C16.8547 13.7161 16.6049 13.6018 16.4473 13.4027C16.2984 13.2144 16.2493 12.9712 16.3092 12.7177C16.3768 12.4313 16.4691 12.1326 16.5584 11.8438C16.7212 11.3163 16.8751 10.8181 16.8751 10.4206C16.8751 9.74071 16.4572 9.28389 15.8352 9.28389C15.0447 9.28389 14.4254 10.0868 14.4254 11.1117C14.4254 11.6144 14.559 11.9904 14.6194 12.1347C14.5199 12.5567 13.928 15.0651 13.8158 15.5381C13.7508 15.8142 13.3598 17.9952 14.007 18.1691C14.7342 18.3645 15.3842 16.2404 15.4504 16.0004C15.504 15.8052 15.6916 15.067 15.8066 14.6133C16.1577 14.9514 16.7229 15.18 17.2729 15.18C18.3097 15.18 19.2421 14.7135 19.8984 13.8663C20.535 13.0447 20.8855 11.8995 20.8855 10.6419C20.8855 9.65865 20.4633 8.68937 19.7272 7.98259Z" fill="black"/>
</g>
<defs>
<filter id="filter0_d_1_13" x="0" y="105" width="33" height="33" filterUnits="userSpaceOnUse" color-interpolation-filters="sRGB">
<feFlood flood-opacity="0" result="BackgroundImageFix"/>
<feColorMatrix in="SourceAlpha" type="matrix" values="0 0 0 0 0 0 0 0 0 0 0 0 0 0 0 0 0 0 127 0" result="hardAlpha"/>
<feOffset dy="4"/>
<feGaussianBlur stdDeviation="2"/>
<feComposite in2="hardAlpha" operator="out"/>
<feColorMatrix type="matrix" values="0 0 0 0 0 0 0 0 0 0 0 0 0 0 0 0 0 0 0.05 0"/>
<feBlend mode="normal" in2="BackgroundImageFix" result="effect1_dropShadow_1_13"/>
<feBlend mode="normal" in="SourceGraphic" in2="effect1_dropShadow_1_13" result="shape"/>
</filter>
<filter id="filter1_d_1_13" x="0" y="70" width="33" height="33" filterUnits="userSpaceOnUse" color-interpolation-filters="sRGB">
<feFlood flood-opacity="0" result="BackgroundImageFix"/>
<feColorMatrix in="SourceAlpha" type="matrix" values="0 0 0 0 0 0 0 0 0 0 0 0 0 0 0 0 0 0 127 0" result="hardAlpha"/>
<feOffset dy="4"/>
<feGaussianBlur stdDeviation="2"/>
<feComposite in2="hardAlpha" operator="out"/>
<feColorMatrix type="matrix" values="0 0 0 0 0 0 0 0 0 0 0 0 0 0 0 0 0 0 0.05 0"/>
<feBlend mode="normal" in2="BackgroundImageFix" result="effect1_dropShadow_1_13"/>
<feBlend mode="normal" in="SourceGraphic" in2="effect1_dropShadow_1_13" result="shape"/>
</filter>
<filter id="filter2_d_1_13" x="0" y="35" width="33" height="33" filterUnits="userSpaceOnUse" color-interpolation-filters="sRGB">
<feFlood flood-opacity="0" result="BackgroundImageFix"/>
<feColorMatrix in="SourceAlpha" type="matrix" values="0 0 0 0 0 0 0 0 0 0 0 0 0 0 0 0 0 0 127 0" result="hardAlpha"/>
<feOffset dy="4"/>
<feGaussianBlur stdDeviation="2"/>
<feComposite in2="hardAlpha" operator="out"/>
<feColorMatrix type="matrix" values="0 0 0 0 0 0 0 0 0 0 0 0 0 0 0 0 0 0 0.05 0"/>
<feBlend mode="normal" in2="BackgroundImageFix" result="effect1_dropShadow_1_13"/>
<feBlend mode="normal" in="SourceGraphic" in2="effect1_dropShadow_1_13" result="shape"/>
</filter>
<filter id="filter3_d_1_13" x="0" y="0" width="33" height="33" filterUnits="userSpaceOnUse" color-interpolation-filters="sRGB">
<feFlood flood-opacity="0" result="BackgroundImageFix"/>
<feColorMatrix in="SourceAlpha" type="matrix" values="0 0 0 0 0 0 0 0 0 0 0 0 0 0 0 0 0 0 127 0" result="hardAlpha"/>
<feOffset dy="4"/>
<feGaussianBlur stdDeviation="2"/>
<feComposite in2="hardAlpha" operator="out"/>
<feColorMatrix type="matrix" values="0 0 0 0 0 0 0 0 0 0 0 0 0 0 0 0 0 0 0.05 0"/>
<feBlend mode="normal" in2="BackgroundImageFix" result="effect1_dropShadow_1_13"/>
<feBlend mode="normal" in="SourceGraphic" in2="effect1_dropShadow_1_13" result="shape"/>
</filter>
</defs>
</svg>
