<svg width="33" height="33" viewBox="0 0 33 33" fill="none" xmlns="http://www.w3.org/2000/svg">
<g filter="url(#filter0_d_1_22)">
<path d="M16.5 25C23.4036 25 29 19.4036 29 12.5C29 5.59644 23.4036 0 16.5 0C9.59644 0 4 5.59644 4 12.5C4 19.4036 9.59644 25 16.5 25Z" fill="white"/>
<path d="M22.3099 8.9798C21.8728 9.17043 21.4104 9.29711 20.9372 9.35593C21.436 9.06021 21.809 8.5918 21.9855 8.03946C21.5184 8.31644 21.0075 8.51149 20.4747 8.61616C20.148 8.26745 19.724 8.02503 19.2578 7.92038C18.7916 7.81574 18.3046 7.85371 17.8603 8.02936C17.4159 8.20502 17.0346 8.51023 16.7659 8.90537C16.4973 9.30051 16.3536 9.76731 16.3537 10.2451C16.3523 10.4277 16.3714 10.6099 16.4105 10.7883C15.4628 10.7418 14.5355 10.4958 13.6894 10.0663C12.8433 9.63691 12.0973 9.03375 11.5002 8.29627C11.1943 8.82014 11.0997 9.44097 11.2356 10.0322C11.3716 10.6234 11.728 11.1405 12.2321 11.4781C11.855 11.468 11.486 11.3675 11.1559 11.1849V11.2145C11.1565 11.7646 11.3467 12.2977 11.6943 12.724C12.0419 13.1504 12.5257 13.444 13.0645 13.5554C12.8605 13.6091 12.6503 13.6355 12.4395 13.6338C12.288 13.6364 12.1368 13.6227 11.9883 13.5929C12.1428 14.0646 12.4395 14.477 12.8377 14.7734C13.2358 15.0698 13.716 15.2358 14.2122 15.2485C13.369 15.9091 12.3287 16.2678 11.2576 16.2673C11.0677 16.2684 10.878 16.2574 10.6895 16.2343C11.7787 16.9365 13.0481 17.3079 14.344 17.3037C15.2361 17.3099 16.1205 17.1389 16.9459 16.8004C17.7712 16.462 18.5212 15.9629 19.152 15.3322C19.7829 14.7015 20.2822 13.9517 20.6208 13.1264C20.9595 12.3011 21.1307 11.4167 21.1247 10.5247C21.1247 10.4196 21.1213 10.3179 21.1162 10.2167C21.586 9.88041 21.9905 9.46125 22.3099 8.9798Z" fill="black"/>
</g>
<defs>
<filter id="filter0_d_1_22" x="0" y="0" width="33" height="33" filterUnits="userSpaceOnUse" color-interpolation-filters="sRGB">
<feFlood flood-opacity="0" result="BackgroundImageFix"/>
<feColorMatrix in="SourceAlpha" type="matrix" values="0 0 0 0 0 0 0 0 0 0 0 0 0 0 0 0 0 0 127 0" result="hardAlpha"/>
<feOffset dy="4"/>
<feGaussianBlur stdDeviation="2"/>
<feComposite in2="hardAlpha" operator="out"/>
<feColorMatrix type="matrix" values="0 0 0 0 0 0 0 0 0 0 0 0 0 0 0 0 0 0 0.05 0"/>
<feBlend mode="normal" in2="BackgroundImageFix" result="effect1_dropShadow_1_22"/>
<feBlend mode="normal" in="SourceGraphic" in2="effect1_dropShadow_1_22" result="shape"/>
</filter>
</defs>
</svg>
